<svg width="11" height="20" viewBox="0 0 11 20" fill="none" xmlns="http://www.w3.org/2000/svg">
<path d="M0.46034 11.103L8.5537 19.5574C8.68663 19.6976 8.84478 19.809 9.01903 19.8849C9.19328 19.9609 9.38018 20 9.56894 20C9.75771 20 9.94461 19.9609 10.1189 19.8849C10.2931 19.809 10.4513 19.6976 10.5842 19.5574C10.8505 19.277 11 18.8978 11 18.5024C11 18.1071 10.8505 17.7279 10.5842 17.4475L3.50607 9.96573L10.5842 2.55877C10.8505 2.27841 11 1.89915 11 1.50384C11 1.10852 10.8505 0.729267 10.5842 0.448906C10.4518 0.307518 10.2938 0.195036 10.1196 0.117979C9.94529 0.0409222 9.75813 0.000822067 9.56894 0C9.37976 0.000822067 9.1926 0.0409222 9.01833 0.117979C8.84406 0.195036 8.68613 0.307518 8.5537 0.448906L0.46034 8.90332C0.315195 9.04344 0.199359 9.21351 0.120131 9.40279C0.0409031 9.59208 0 9.79649 0 10.0031C0 10.2098 0.0409031 10.4142 0.120131 10.6035C0.199359 10.7928 0.315195 10.9628 0.46034 11.103Z" fill="#125CF9"/>
</svg>
