<svg width="35" height="29" viewBox="0 0 35 29" fill="none" xmlns="http://www.w3.org/2000/svg">
<path d="M13.0077 27.2563C13.8029 27.2563 14.1474 26.8852 14.598 26.4611C15.2872 25.7985 24.14 17.1842 24.14 17.1842L18.7064 15.8589L13.5074 19.1711L13.0077 26.9912V27.2563Z" fill="white"/>
<path d="M13.5373 19.1456L26.366 28.6081C27.8238 29.4032 28.884 29.0056 29.2551 27.2563L34.4767 2.65916C35.0068 0.512211 33.655 -0.441986 32.2502 0.194146L1.60984 12.0156C-0.484097 12.8638 -0.457592 14.03 1.23876 14.5336L9.1109 16.9986L27.3202 5.52176C28.1684 4.99165 28.9635 5.28321 28.3274 5.86633L13.5373 19.1456Z" fill="white"/>
</svg>
