<svg width="46" height="35" viewBox="0 0 46 35" fill="none" xmlns="http://www.w3.org/2000/svg">
<path d="M33.9731 35C31.9312 35 30.1047 34.3889 28.4936 33.1667C26.9012 31.9444 25.8334 30.3611 25.2902 28.4167C24.9155 27.0648 24.7282 25.6389 24.7282 24.1389C24.7282 21.8611 25.1778 19.5556 26.077 17.2222C26.9762 14.8704 28.2126 12.6574 29.7862 10.5833C31.3598 8.50926 33.1769 6.57407 35.2376 4.77778C37.317 2.96296 39.5463 1.37037 41.9255 0L46 4.02778C41.7662 7.37963 38.8719 9.97222 37.317 11.8056C35.7809 13.6389 34.9847 15.463 34.9285 17.2778C37.214 17.537 39.1248 18.5093 40.661 20.1944C42.1971 21.8796 42.9652 23.8519 42.9652 26.1111C42.9652 28.5741 42.0847 30.6759 40.3238 32.4167C38.5816 34.1389 36.4647 35 33.9731 35ZM9.24496 35C7.20301 35 5.3765 34.3889 3.76542 33.1667C2.17308 31.9444 1.10527 30.3611 0.562004 28.4167C0.187335 27.0648 0 25.6389 0 24.1389C0 21.8611 0.449603 19.5556 1.34881 17.2222C2.24801 14.8704 3.48442 12.6574 5.05803 10.5833C6.63164 8.50926 8.44879 6.57407 10.5095 4.77778C12.5889 2.96296 14.8182 1.37037 17.1973 0L21.2718 4.02778C17.0381 7.37963 14.1438 9.97222 12.5889 11.8056C11.0527 13.6389 10.2566 15.463 10.2004 17.2778C12.4858 17.537 14.3967 18.5093 15.9328 20.1944C17.4689 21.8796 18.237 23.8519 18.237 26.1111C18.237 28.5741 17.3565 30.6759 15.5956 32.4167C13.8534 34.1389 11.7365 35 9.24496 35Z" fill="#EDEDED"/>
</svg>
