<svg width="33" height="34" viewBox="0 0 33 34" fill="none" xmlns="http://www.w3.org/2000/svg">
<path d="M32.7772 15.9168C32.7706 18.802 32.1442 21.3474 30.8782 23.7129C29.6854 25.9451 28.0396 27.8042 25.9673 29.2702C24.1482 30.5562 22.1558 31.4358 19.9769 31.8889C17.5648 32.3886 15.1526 32.3353 12.7605 31.7623C11.4944 31.4557 10.2817 30.9893 9.14228 30.3696C8.94904 30.263 8.78246 30.2563 8.57589 30.323C6.0638 31.1292 3.55172 31.9288 1.03963 32.7285C0.753101 32.8217 0.473239 32.9084 0.186714 33.015C-0.0131868 33.0883 -0.0265135 33.015 0.0267934 32.8484C0.319982 31.9888 0.606506 31.1292 0.899695 30.263C1.52605 28.3906 2.15241 26.5182 2.79209 24.6525C2.87871 24.4059 2.75211 24.246 2.65216 24.0727C1.86588 22.7067 1.30616 21.2541 0.959665 19.7216C0.206704 16.4165 0.473239 13.1781 1.73928 10.0397C2.47225 8.22725 3.5184 6.60139 4.85774 5.1621C6.56356 3.32301 8.58256 1.97035 10.9147 1.06413C13.0937 0.217881 15.3459 -0.108624 17.6647 0.0313068C20.8432 0.224544 23.7351 1.27736 26.2738 3.19641C29.5588 5.67518 31.6245 8.93357 32.4507 12.9782C32.6706 14.0111 32.7506 15.0572 32.7772 15.9168ZM16.5519 2.72997C15.9323 2.70332 15.2059 2.77661 14.4796 2.88323C14.1931 2.92321 13.9133 2.98318 13.6334 3.05648C9.3022 4.15593 6.19041 6.74132 4.35798 10.8126C3.29851 13.1648 3.01198 15.6502 3.41178 18.1956C3.72496 20.208 4.47126 22.0604 5.63735 23.7329C5.76395 23.9195 5.78394 24.0794 5.71065 24.286C5.21756 25.7319 4.73779 27.1845 4.25137 28.6371C4.22472 28.7171 4.14475 28.8104 4.21805 28.8837C4.29135 28.9636 4.38464 28.877 4.4646 28.8504C5.92387 28.3839 7.38315 27.9242 8.8291 27.4377C9.16227 27.3245 9.40215 27.3778 9.68868 27.551C12.9604 29.5167 16.4587 30.0365 20.1435 29.0569C22.9421 28.3173 25.2476 26.7914 27.0734 24.5392C28.8392 22.3603 29.8254 19.8682 30.0253 17.0829C30.1785 14.9439 29.8454 12.865 28.9925 10.8793C27.9197 8.38051 26.2471 6.3815 23.9883 4.89557C21.776 3.44295 19.3306 2.69665 16.5519 2.72997Z" fill="white"/>
<path d="M8.59592 12.2452C8.62257 10.746 9.20895 9.51326 10.3551 8.55373C10.6816 8.28053 11.0747 8.16726 11.5078 8.24055C11.6944 8.26721 11.8876 8.29386 12.0675 8.27387C12.5206 8.24055 12.7805 8.49376 12.9204 8.86691C13.3469 9.98635 13.76 11.1125 14.1798 12.2319C14.2598 12.4451 14.2398 12.6384 14.1398 12.8383C13.88 13.378 13.4668 13.7978 13.0537 14.2176C12.6939 14.5841 12.6739 14.704 12.9204 15.1505C14.1132 17.3094 15.759 18.9886 18.0379 20.0081C18.1512 20.0547 18.2511 20.1347 18.3578 20.1813C18.6443 20.3212 18.9042 20.3079 19.144 20.0614C19.6105 19.5883 20.0436 19.0819 20.4634 18.5621C20.7899 18.1556 20.9431 18.0957 21.4029 18.3022C22.5224 18.822 23.5885 19.4283 24.6746 20.0147C25.0344 20.208 25.0744 20.4745 25.0211 20.9609C24.8012 22.9399 23.2886 23.8395 21.5628 24.126C20.9831 24.2193 20.4367 24.166 19.8903 23.9928C18.2911 23.4863 16.7186 22.9 15.3059 21.9804C13.9866 21.1208 12.8538 20.048 11.861 18.8286C10.8948 17.6359 10.0352 16.3765 9.32223 15.0105C8.92243 14.2309 8.59592 13.0182 8.59592 12.2452Z" fill="white"/>
</svg>
