<svg width="186" height="60" viewBox="0 0 186 60" fill="none" xmlns="http://www.w3.org/2000/svg">
<path fill-rule="evenodd" clip-rule="evenodd" d="M33.5676 40.4791C58.9448 20.9581 31.6155 -13.2035 7.2143 5.34139C-2.54617 14.1258 -3.03419 30.7186 9.65441 39.991L40.3999 60C42.352 56.0958 41.3759 51.7036 37.9598 49.7515L13.0706 33.1587C-2.05814 20.4701 15.9987 -1.49093 31.6155 11.6857C37.4717 17.054 37.4717 24.3743 33.0795 31.2066L13.5586 18.518C11.1185 21.9342 12.0945 26.8144 15.9987 28.7665L33.5676 40.4791Z" fill="white"/>
<path d="M51.1364 20.958C51.1364 22.4221 52.1125 23.8862 53.0885 25.3503C54.0646 26.3263 55.5286 26.8143 57.4807 26.8143C58.9448 26.8143 60.4089 26.3263 61.3849 25.3503C62.361 23.8862 63.337 22.4221 63.337 20.958C63.337 19.494 62.361 18.0299 61.3849 16.5658C60.4089 15.5898 58.9448 15.1018 57.4807 15.1018C55.5286 15.1018 54.0646 15.5898 53.0885 16.5658C52.1125 18.0299 51.1364 19.494 51.1364 20.958ZM49.6724 13.6377H51.1364V16.5658C53.0885 14.6137 55.0406 13.6377 57.4807 13.6377C59.4328 13.6377 61.3849 14.1257 62.849 15.5898C64.3131 17.0539 64.8011 19.006 64.8011 20.958C64.8011 22.9101 64.3131 24.8622 62.849 26.3263C61.3849 27.7904 59.4328 28.2784 57.4807 28.2784C54.5526 28.2784 52.6005 27.3023 51.1364 25.3503V33.1586H49.6724V13.6377Z" fill="white"/>
<path d="M76.5136 25.8383C75.5376 27.7904 74.0735 28.7664 72.1214 28.7664C70.1693 28.7664 69.1933 27.7904 68.2172 26.8143C67.2412 25.8383 66.7532 24.8622 66.7532 22.9101V13.6377H68.7053V22.4221C68.7053 25.3503 69.6813 27.3023 72.1214 27.3023C73.5855 27.3023 74.5615 26.8143 75.5376 25.8383C76.0256 24.8622 76.5136 23.8862 76.5136 22.9101V13.6377H78.4657V28.2784H76.5136V25.8383Z" fill="white"/>
<path d="M82.3698 20.9579C82.3698 22.4219 83.3459 23.886 84.3219 25.3501C85.298 26.3261 86.762 26.8142 88.7141 26.8142C90.1782 26.8142 91.6423 26.3261 92.6183 25.3501C93.5944 23.886 94.5704 22.4219 94.5704 20.9579C94.5704 19.4938 93.5944 18.0297 92.6183 16.5657C91.6423 15.5896 90.1782 15.1016 88.7141 15.1016C86.762 15.1016 85.298 15.5896 84.3219 16.5657C83.3459 18.0297 82.3698 19.4938 82.3698 20.9579ZM80.9058 20.9579V8.26927L82.3698 7.78125V16.5657C83.8339 14.6136 85.786 13.6375 88.7141 13.6375C90.6662 13.6375 92.6183 14.1256 94.0824 15.5896C95.5465 17.0537 96.0345 19.0058 96.0345 20.9579C96.0345 22.91 95.5465 24.8621 94.0824 26.3261C92.6183 27.7902 90.6662 28.2782 88.7141 28.2782C86.274 28.2782 84.3219 27.7902 82.8579 26.3261C81.8818 24.8621 80.9058 22.91 80.9058 20.9579Z" fill="white"/>
<path d="M98.4747 28.2782V8.26927L99.9388 7.78125V28.2782H98.4747Z" fill="white"/>
<path d="M102.867 9.24532L104.331 7.78125L105.795 9.24532L104.331 10.7094L102.867 9.24532ZM103.355 28.2782V13.6375H105.307V28.2782H103.355Z" fill="white"/>
<path d="M120.436 26.8143C119.46 27.7904 117.996 28.2784 116.532 28.2784C116.044 28.2784 115.556 28.2784 115.068 28.2784C113.115 28.2784 111.163 27.7904 109.699 26.3263C108.235 24.8622 107.747 22.9101 107.747 20.958C107.747 19.006 108.235 17.0539 109.699 15.5898C111.163 14.1257 113.115 13.6377 115.068 13.6377C117.02 13.6377 118.972 14.1257 120.436 15.1018L119.46 16.5658C117.996 15.5898 116.532 15.1018 115.068 15.1018C113.603 15.1018 112.139 15.5898 111.163 16.5658C109.699 18.0299 109.211 19.494 109.211 20.958C109.211 22.4221 109.699 23.8862 111.163 25.3503C112.139 26.3263 113.603 26.8143 115.068 26.8143C116.532 26.8143 117.996 26.3263 119.46 25.3503L120.436 26.8143Z" fill="white"/>
<path d="M122.388 9.24532L123.852 7.78125L124.828 9.24532L123.852 10.7094L122.388 9.24532ZM122.876 28.2782V13.6375H124.828V28.2782H122.876Z" fill="white"/>
<path d="M134.1 28.2785H133.124H132.636C132.148 28.2785 132.148 28.2785 132.148 28.2785C130.684 28.2785 130.196 27.7905 129.22 27.3025C128.732 26.3264 128.244 24.8623 128.244 22.9103V15.5899H126.292L126.78 13.6378H128.244V10.2217L130.196 9.24561V13.6378H133.612V15.5899H130.196V22.9103C130.196 24.3743 130.196 25.3504 130.684 25.8384C131.172 26.3264 131.66 26.8144 132.636 26.8144H133.124H133.612C133.612 26.8144 133.612 26.3264 134.1 26.3264V28.2785Z" fill="white"/>
<path d="M149.229 26.3263L150.693 25.3503C151.669 26.3263 152.645 26.8143 154.109 26.8143C155.085 26.8143 155.573 26.8143 156.549 26.3263C157.037 25.8383 157.037 25.3503 157.037 24.3742C157.037 23.3982 157.037 22.9101 156.549 22.4221C156.061 22.4221 155.085 21.9341 154.597 21.4461C152.645 20.958 151.181 20.47 150.693 19.982C150.205 19.494 149.717 18.5179 149.717 17.5419C149.717 16.0778 150.205 15.1018 151.181 14.6137C152.157 13.6377 153.133 13.6377 154.597 13.6377C156.061 13.6377 157.525 14.1257 158.501 15.1018L157.525 16.5658C156.549 15.5898 155.573 15.1018 154.597 15.1018C153.621 15.1018 153.133 15.1018 152.157 15.5898C151.669 16.0778 151.181 16.5658 151.181 17.5419C151.181 18.5179 152.645 19.494 154.597 19.982H155.085C157.525 20.958 158.989 21.9341 158.989 23.8862C158.989 25.3503 158.501 26.3263 157.525 27.3023C156.549 28.2784 155.573 28.7664 154.109 28.7664C152.157 28.7664 150.693 27.7904 149.229 26.3263Z" fill="white"/>
<path fill-rule="evenodd" clip-rule="evenodd" d="M166.31 19.0061L178.999 11.1978L185.343 20.4702L172.166 28.7666L161.918 28.2786L166.31 19.0061ZM173.142 26.3265L172.654 25.3504L173.63 24.8624L174.118 25.8384L173.142 26.3265ZM175.582 24.8624L173.142 20.4702L172.166 20.9582L171.678 19.9822L172.654 19.4941L172.166 19.0061L171.678 18.5181C171.678 18.0301 171.678 18.0301 171.678 17.5421C172.166 17.5421 172.166 17.054 172.654 17.054C172.654 16.566 173.142 16.566 173.63 16.566V17.054C173.63 17.5421 173.63 17.5421 173.142 17.5421L172.654 18.0301C172.654 18.0301 172.654 18.5181 173.142 19.0061L174.118 18.5181L174.606 19.0061L173.63 19.9822L176.558 23.8864L175.582 24.8624ZM178.023 22.9103L175.094 18.0301L175.582 17.5421L176.07 18.5181C176.07 18.0301 176.07 17.5421 176.07 17.5421C176.558 17.054 176.558 17.054 176.558 17.054C177.046 16.566 177.534 16.566 177.534 16.566L178.023 17.5421C177.534 17.5421 177.534 17.5421 177.046 18.0301C177.046 18.0301 177.046 18.0301 177.046 18.5181C176.558 18.5181 176.558 18.5181 177.046 19.0061C177.046 19.0061 177.046 19.4941 177.534 19.9822L178.999 22.4223L178.023 22.9103Z" fill="white"/>
<path d="M51.1364 20.958C51.1364 22.4221 51.6244 23.8862 52.6005 25.3503C54.0646 26.3263 55.5286 26.8143 56.9927 26.8143C58.4568 26.8143 59.9208 26.3263 61.3849 25.3503C62.361 23.8862 62.849 22.4221 62.849 20.958C62.849 19.494 62.361 18.0299 61.3849 16.5658C59.9208 15.5898 58.4568 15.1018 56.9927 15.1018C55.5286 15.1018 54.0646 15.5898 52.6005 16.5658C51.6244 18.0299 51.1364 19.494 51.1364 20.958ZM49.1843 13.6377H51.1364V16.5658C52.6005 14.6137 54.5526 13.6377 56.9927 13.6377C58.9448 13.6377 60.8969 14.1257 62.361 15.5898C63.825 17.0539 64.8011 19.006 64.8011 20.958C64.8011 22.9101 63.825 24.8622 62.361 26.3263C60.8969 27.7904 58.9448 28.2784 56.9927 28.2784C54.5526 28.2784 52.6005 27.3023 51.1364 25.3503V33.1586L49.1843 33.6466V13.6377Z" fill="white"/>
<path d="M76.5136 25.8383C75.5376 27.7904 73.5855 28.7664 71.6334 28.7664C70.1693 28.7664 68.7053 27.7904 68.2172 26.8143C67.2412 25.8383 66.7532 24.8622 66.7532 22.9101V13.6377H68.2172V21.9341C68.2172 25.3503 69.6813 27.3023 72.1214 27.3023C73.5855 27.3023 74.5615 26.8143 75.0496 25.8383C76.0256 24.8622 76.5136 23.8862 76.5136 22.9101V13.6377H77.9777V28.2784H76.5136V25.8383Z" fill="white"/>
<path d="M82.3698 20.9579C82.3698 22.4219 82.8579 23.886 84.3219 25.3501C85.298 26.3261 86.762 26.8142 88.7141 26.8142C90.1782 26.8142 91.6423 26.3261 92.6183 25.3501C94.0824 23.886 94.5704 22.4219 94.5704 20.9579C94.5704 19.4938 94.0824 18.0297 92.6183 16.5657C91.6423 15.5896 90.1782 15.1016 88.7141 15.1016C86.762 15.1016 85.298 15.5896 84.3219 16.5657C83.3459 18.0297 82.3698 19.4938 82.3698 20.9579ZM80.9058 20.4699V7.78125H82.3698V16.5657C83.8339 14.6136 85.786 13.6375 88.7141 13.6375C90.6662 13.6375 92.6183 14.1256 94.0824 15.5896C95.5465 17.0537 96.0345 19.0058 96.0345 20.9579C96.0345 22.91 95.5465 24.8621 94.0824 26.3261C92.6183 27.7902 90.6662 28.2782 88.7141 28.2782C86.274 28.2782 84.3219 27.7902 82.8579 26.3261C81.3938 24.8621 80.9058 22.91 80.9058 20.4699Z" fill="white"/>
<path d="M98.4747 28.2782V7.78125H100.427V28.2782H98.4747Z" fill="white"/>
<path d="M103.355 9.24532L104.331 7.78125L105.795 9.24532L104.331 10.7094L103.355 9.24532ZM103.843 28.2782V13.6375H105.307V28.2782H103.843Z" fill="white"/>
<path d="M120.924 26.8143C119.46 27.7904 118.484 28.2784 117.02 28.2784C116.532 28.2784 116.044 28.2784 115.556 28.2784C113.115 28.2784 111.651 27.7904 110.187 26.3263C108.723 24.8622 107.747 22.9101 107.747 20.958C107.747 18.5179 108.723 17.0539 110.187 15.5898C111.651 14.1257 113.115 13.6377 115.556 13.6377C117.508 13.6377 119.46 14.1257 120.924 15.1018L119.948 16.5658C118.484 15.5898 117.02 15.1018 115.556 15.1018C113.603 15.1018 112.627 15.5898 111.163 16.5658C110.187 18.0299 109.699 19.494 109.699 20.958C109.699 22.4221 110.187 23.8862 111.163 25.3503C112.627 26.3263 113.603 26.8143 115.556 26.8143C117.02 26.8143 118.484 26.3263 119.948 25.3503L120.924 26.8143Z" fill="white"/>
<path d="M122.876 9.24532L124.34 7.78125L125.316 9.24532L124.34 10.7094L122.876 9.24532ZM123.364 28.2782V13.6375H124.828V28.2782H123.364Z" fill="white"/>
<path d="M134.588 28.2785H133.612H133.124C132.636 28.2785 132.636 28.2785 132.636 28.2785C131.172 28.2785 130.684 27.7905 129.708 27.3025C129.22 26.3264 128.732 24.8623 128.732 22.9103V15.1019H126.78L127.268 13.6378H128.732V10.2217L130.684 9.24561V13.6378H134.1V15.1019H130.684V22.9103C130.684 24.3743 130.684 25.3504 131.172 25.8384C131.66 26.3264 132.148 26.8144 133.124 26.8144H133.612H134.1C134.1 26.8144 134.588 26.8144 134.588 26.3264V28.2785Z" fill="white"/>
<path d="M137.029 22.4221L146.789 16.5658C145.813 15.5898 144.837 15.1018 142.885 15.1018C141.421 15.1018 139.957 15.5898 138.981 16.5658C137.517 18.0299 137.029 19.494 137.029 20.958V21.4461V22.4221ZM148.741 26.3263C146.789 27.7904 144.837 28.2784 142.885 28.2784C140.933 28.2784 138.981 27.7904 137.517 26.3263C136.052 24.8622 135.564 22.9101 135.564 20.958C135.564 18.5179 136.052 17.0539 137.517 15.5898C138.981 14.1257 140.933 13.6377 142.885 13.6377C145.813 13.6377 147.765 14.6137 149.229 17.0539L137.517 23.3982C138.981 25.8383 140.445 26.8143 142.885 26.8143C144.837 26.8143 146.789 25.8383 148.741 24.3742V26.3263Z" fill="white"/>
<path d="M149.717 26.3265L151.181 25.3505C152.157 26.3265 153.621 26.8146 155.085 26.8146C155.573 26.8146 156.549 26.8146 157.037 26.3265C157.525 25.8385 158.013 25.3505 158.013 24.3744C158.013 23.3984 157.525 22.9104 157.037 22.4223C156.549 21.9343 156.061 21.9343 155.085 21.4463C153.133 20.9583 152.157 20.4703 151.181 19.9822C150.693 19.4942 150.205 18.5182 150.205 17.5421C150.205 16.078 150.693 15.102 151.669 14.614C152.645 13.6379 153.621 13.1499 155.085 13.1499C157.037 13.1499 158.013 14.1259 159.478 15.102L158.501 16.078C157.525 15.102 156.061 14.614 155.085 14.614C154.109 14.614 153.621 15.102 153.133 15.59C152.645 16.078 152.157 16.5661 152.157 17.5421C152.157 18.5182 153.133 19.4942 155.085 19.9822C155.085 19.9822 155.573 19.9822 156.061 19.9822C158.501 20.9583 159.478 21.9343 159.478 23.8864C159.478 25.3505 158.989 26.3265 158.013 27.3026C157.525 28.2786 156.061 28.7666 154.597 28.7666C152.645 28.7666 151.181 27.7906 149.717 26.3265Z" fill="white"/>
<path d="M63.337 46.3354L73.5855 40.4792C72.6094 39.0151 71.1454 38.5271 69.6813 38.5271C67.7292 38.5271 66.2651 39.0151 64.8011 40.4792C63.825 41.9432 62.849 43.4073 62.849 44.8714V45.8474L63.337 46.3354ZM75.5376 51.2157C73.5855 52.6797 71.6334 53.1678 69.6813 53.1678C67.2412 53.1678 65.2891 52.1917 63.337 50.7276C61.8729 49.2636 61.3849 47.3115 61.3849 44.8714C61.3849 42.9193 61.8729 40.9672 63.825 39.0151C65.2891 37.551 67.2412 37.063 69.6813 37.063C72.6094 37.063 74.5615 38.039 76.0256 40.4792L63.825 47.7995C64.801 50.2396 66.7531 51.2157 69.6813 51.2157C71.1454 51.2157 73.5855 50.7276 75.5376 48.7755V51.2157Z" fill="white"/>
<path d="M77.9775 53.1678V37.063H79.9296V39.5031C80.9057 38.039 82.8578 37.063 84.8099 37.063C86.762 37.063 88.226 37.551 88.7141 38.5271C89.6901 39.5031 90.1781 40.9672 90.1781 42.9193V52.6797L88.7141 53.1678V43.8953C88.7141 39.9911 87.25 38.5271 84.3218 38.5271C82.8578 38.5271 81.8817 39.0151 80.9057 39.9911C80.4177 40.4792 79.9296 41.9432 79.9296 42.9193V52.6797L77.9775 53.1678Z" fill="white"/>
<path d="M99.9387 52.6794L98.9627 53.1674H98.4747H97.9866C96.5226 53.1674 95.5465 52.6794 95.0585 51.7033C94.5705 50.7273 94.0824 49.2632 94.0824 46.8231V39.0147H91.6423L92.1304 37.0626H94.0824V33.6465L96.0345 32.6704V37.0626H99.9387V39.0147H96.0345V47.3111C96.0345 48.7752 96.0345 49.7512 96.5226 50.2392C97.0106 51.2153 97.4986 51.2153 98.4747 51.2153H98.9627C99.4507 51.2153 99.4507 51.2153 99.4507 51.2153C99.9387 51.2153 99.9387 51.2153 99.9387 51.2153V52.6794Z" fill="white"/>
<path d="M101.891 53.1675V37.0627H103.355V40.4789C104.819 38.0388 106.771 36.5747 109.211 36.5747H109.699L108.723 38.5268C105.307 39.0148 103.355 41.4549 103.355 46.8232V52.6795L101.891 53.1675Z" fill="white"/>
<path d="M111.651 46.3354L121.9 40.4792C120.924 39.0151 119.46 38.5271 117.995 38.5271C116.043 38.5271 114.579 39.0151 113.115 40.4792C112.139 41.9432 111.651 43.4073 111.651 44.8714V45.8474V46.3354ZM123.852 51.2157C121.9 52.6797 119.948 53.1678 117.995 53.1678C115.555 53.1678 113.603 52.1917 112.139 50.7276C110.187 49.2636 109.699 47.3115 109.699 44.8714C109.699 42.9193 110.187 40.9672 112.139 39.0151C113.603 37.551 115.555 37.063 117.995 37.063C120.924 37.063 122.876 38.039 124.34 40.4792L112.139 47.7995C113.115 50.2396 115.067 51.2157 117.995 51.2157C119.948 51.2157 121.9 50.7276 123.852 48.7755V51.2157Z" fill="white"/>
<path d="M128.244 44.8714C128.244 46.8235 128.732 48.2875 130.196 49.7516C131.172 50.7276 132.636 51.7037 134.588 51.7037C136.54 51.7037 138.005 50.7276 138.981 49.7516C140.445 48.2875 140.933 46.8235 140.933 44.8714C140.933 43.4073 140.445 41.9432 138.981 40.4792C138.005 39.0151 136.54 38.5271 134.588 38.5271C132.636 38.5271 131.172 39.0151 130.196 40.4792C128.732 41.9432 128.244 43.4073 128.244 44.8714ZM126.292 37.063H128.244V40.4792C129.708 38.039 132.148 37.063 134.588 37.063C137.029 37.063 138.981 37.551 140.445 39.0151C141.909 40.9672 142.885 42.9193 142.885 44.8714C142.885 47.3115 141.909 49.2636 140.445 50.7276C138.981 52.1917 137.029 53.1678 134.588 53.1678C131.66 53.1678 129.708 52.1917 128.244 49.7516V58.536H126.292V37.063Z" fill="white"/>
<path d="M145.325 53.1675V37.0627H146.789V40.4789C148.253 38.0388 150.205 36.5747 152.645 36.5747H153.133L152.157 38.5268C148.741 39.0148 146.789 41.4549 146.789 46.8232V52.6795L145.325 53.1675Z" fill="white"/>
<path d="M153.621 32.1828L155.085 30.7188L156.061 32.1828L155.085 33.6469L153.621 32.1828ZM154.109 53.1678V37.0631H155.573V52.6798L154.109 53.1678Z" fill="white"/>
<path d="M158.014 50.7276L159.478 49.7516C160.454 50.7276 161.918 51.7037 163.382 51.7037C164.358 51.7037 165.334 51.2157 165.822 50.7276C166.31 50.2396 166.798 49.7516 166.798 48.7755C166.798 47.7995 166.31 47.3115 165.822 46.8235C165.334 46.3354 164.846 45.8474 163.87 45.8474C161.918 45.3594 160.454 44.8714 159.478 43.8953C158.99 43.4073 158.502 42.4312 158.502 41.4552C158.502 39.9911 158.99 39.0151 160.454 38.039C161.43 37.063 162.406 37.063 163.87 37.063C165.334 37.063 167.286 37.551 168.262 38.5271L167.286 39.9911C166.31 39.0151 164.846 38.5271 163.87 38.5271C162.894 38.5271 161.918 38.5271 161.43 39.0151C160.942 39.5031 160.454 40.4792 160.454 40.9672C160.454 42.4312 161.43 43.4073 163.87 43.8953C163.87 43.8953 164.358 43.8953 164.846 43.8953C167.286 44.8714 168.75 46.3354 168.75 48.2875C168.75 49.7516 168.262 51.2157 167.286 52.1917C166.31 52.6797 164.846 53.1678 163.382 53.1678C161.43 53.1678 159.478 52.6797 158.014 50.7276Z" fill="white"/>
<path d="M172.166 46.3354L182.415 40.4792C181.927 39.0151 180.463 38.5271 178.511 38.5271C177.046 38.5271 175.582 39.0151 174.118 40.4792C172.654 41.9432 172.166 43.4073 172.166 44.8714V45.8474V46.3354ZM184.855 51.2157C182.903 52.6797 180.951 53.1678 178.511 53.1678C176.558 53.1678 174.118 52.1917 172.654 50.7276C171.19 49.2636 170.214 47.3115 170.214 44.8714C170.214 42.9193 171.19 40.9672 172.654 39.0151C174.606 37.551 176.558 37.063 178.511 37.063C181.927 37.063 183.879 38.039 185.343 40.4792L173.142 47.7995C174.118 50.2396 176.07 51.2157 178.511 51.2157C180.463 51.2157 182.415 50.7276 184.855 48.7755V51.2157Z" fill="white"/>
</svg>
