<?xml version="1.0" standalone="no"?>
<!DOCTYPE svg PUBLIC "-//W3C//DTD SVG 20010904//EN"
 "http://www.w3.org/TR/2001/REC-SVG-20010904/DTD/svg10.dtd">
<svg version="1.0" xmlns="http://www.w3.org/2000/svg"
 width="2976.000000pt" height="2976.000000pt" viewBox="0 0 2976.000000 2976.000000"
 preserveAspectRatio="xMidYMid meet">
<metadata>
Created by potrace 1.14, written by Peter Selinger 2001-2017
</metadata>
<g transform="translate(0.000000,2976.000000) scale(0.100000,-0.100000)"
fill="#000000" stroke="none">
<path d="M3289 19675 c-2 -1 -42 -6 -89 -9 -47 -4 -94 -9 -105 -12 -11 -2 -38
-6 -60 -9 -62 -7 -118 -15 -135 -20 -8 -3 -33 -7 -55 -10 -22 -4 -48 -8 -57
-11 -9 -3 -26 -7 -37 -9 -12 -3 -30 -7 -41 -10 -11 -3 -29 -7 -40 -10 -11 -3
-28 -7 -37 -9 -10 -2 -45 -12 -78 -22 -33 -10 -62 -18 -65 -19 -3 0 -36 -11
-75 -24 -38 -13 -74 -24 -80 -26 -12 -3 -44 -14 -70 -25 -11 -5 -58 -25 -105
-43 -47 -19 -115 -49 -153 -66 -37 -17 -72 -31 -77 -31 -6 0 -10 -4 -10 -10 0
-5 -3 -9 -7 -8 -8 2 -155 -72 -198 -99 -11 -7 -27 -15 -35 -19 -17 -8 -136
-79 -160 -94 -8 -6 -35 -23 -58 -38 -90 -56 -306 -214 -349 -255 -75 -70 -200
-200 -273 -283 -80 -91 -350 -468 -350 -489 0 -2 -17 -32 -37 -67 -21 -35 -36
-66 -35 -70 1 -5 -2 -8 -8 -8 -5 0 -10 -9 -10 -19 0 -11 -3 -21 -7 -23 -18 -8
-145 -296 -195 -442 -25 -74 -68 -214 -73 -239 -2 -10 -7 -27 -10 -37 -3 -10
-8 -27 -10 -37 -2 -10 -9 -40 -15 -68 -6 -27 -13 -58 -15 -68 -2 -10 -6 -26
-9 -35 -3 -9 -8 -35 -11 -57 -3 -23 -7 -50 -9 -62 -3 -12 -7 -43 -11 -70 -4
-26 -9 -59 -11 -73 -19 -124 -26 -577 -11 -725 4 -38 9 -91 12 -116 2 -25 6
-59 9 -75 3 -16 8 -47 11 -69 3 -22 10 -60 15 -85 5 -25 12 -58 14 -75 2 -16
5 -32 7 -35 1 -3 3 -9 4 -15 2 -5 4 -12 5 -15 1 -3 3 -12 5 -20 2 -8 7 -26 10
-40 4 -14 7 -33 7 -42 -1 -10 3 -20 9 -23 5 -4 9 -15 9 -25 0 -11 14 -61 31
-112 16 -51 32 -101 34 -111 2 -10 11 -32 20 -49 8 -17 15 -35 15 -40 0 -5 9
-28 20 -50 11 -23 20 -45 20 -49 0 -5 17 -43 37 -86 21 -43 38 -80 38 -83 2
-10 73 -147 103 -197 17 -29 29 -53 26 -53 -2 0 4 -9 15 -21 11 -12 25 -34 31
-50 7 -16 16 -29 21 -29 5 0 9 -5 9 -11 0 -9 75 -127 89 -139 3 -3 12 -15 18
-27 21 -38 176 -233 185 -233 4 0 8 -5 8 -11 0 -18 293 -320 400 -413 129
-111 249 -203 345 -266 50 -32 95 -64 102 -69 7 -6 17 -11 23 -11 5 0 10 -4
10 -10 0 -5 7 -10 15 -10 8 0 15 -4 15 -10 0 -5 4 -10 9 -10 6 0 64 -36 130
-80 67 -44 126 -80 131 -80 6 0 10 -4 10 -10 0 -5 7 -10 15 -10 8 0 15 -3 15
-8 0 -4 20 -18 45 -32 25 -14 45 -28 45 -32 0 -5 4 -8 10 -8 5 0 87 -51 182
-113 95 -63 239 -157 321 -210 81 -54 152 -97 157 -97 6 0 10 -4 10 -10 0 -5
6 -10 14 -10 8 0 16 -3 18 -8 1 -4 48 -36 103 -71 55 -35 102 -68 103 -72 2
-5 8 -9 13 -9 5 0 61 -34 124 -75 63 -41 168 -109 233 -151 64 -42 150 -99
190 -125 41 -27 78 -49 83 -49 5 0 9 -3 9 -8 0 -4 20 -18 45 -32 25 -14 45
-28 45 -32 0 -5 7 -8 15 -8 8 0 15 -4 15 -10 0 -5 4 -10 9 -10 5 0 42 -22 83
-48 40 -27 76 -49 80 -48 3 1 17 -8 30 -20 22 -19 70 -53 93 -64 6 -3 75 -48
155 -101 80 -53 224 -147 320 -209 96 -62 238 -155 315 -205 77 -50 189 -122
248 -161 60 -38 115 -75 122 -81 8 -7 16 -13 19 -13 4 0 29 -16 56 -35 27 -19
53 -35 56 -35 3 0 23 -13 44 -30 21 -16 41 -30 45 -30 3 0 27 -15 53 -32 26
-18 51 -35 57 -38 5 -3 68 -43 140 -90 71 -47 186 -122 255 -167 69 -45 130
-86 137 -92 7 -6 15 -11 19 -11 4 0 29 -16 55 -35 27 -19 54 -35 59 -35 6 0
10 -4 10 -9 0 -5 14 -14 30 -21 17 -7 30 -16 30 -20 0 -4 8 -10 18 -13 9 -3
31 -15 48 -26 l31 -21 26 62 c28 67 44 108 46 120 1 5 8 25 16 45 8 21 17 49
19 63 3 14 10 43 15 65 23 94 32 174 33 289 1 134 -17 257 -52 366 -6 19 -13
43 -15 53 -8 34 -87 191 -125 247 -44 64 -101 131 -149 174 -19 17 -47 43 -63
59 -16 15 -31 27 -35 27 -3 0 -21 11 -39 25 -18 14 -35 25 -38 25 -3 0 -28 16
-55 35 -26 19 -52 35 -57 35 -5 0 -16 9 -24 20 -8 11 -19 20 -24 20 -12 0
-220 140 -224 151 -2 5 -8 9 -14 9 -12 0 -221 139 -230 154 -4 6 -8 8 -8 4 0
-9 -222 140 -232 156 -4 6 -8 8 -8 3 0 -8 -221 141 -232 157 -4 6 -8 8 -8 3 0
-8 -221 141 -231 156 -3 5 -10 9 -15 9 -12 0 -457 298 -466 312 -4 6 -8 8 -8
3 0 -8 -221 140 -231 155 -3 6 -9 9 -13 8 -9 -1 -1179 780 -1188 794 -4 6 -8
8 -8 4 0 -8 -222 140 -231 154 -3 5 -10 10 -15 10 -12 0 -217 138 -226 152 -4
6 -8 8 -8 3 0 -8 -221 140 -231 155 -3 6 -10 9 -14 8 -16 -5 -291 258 -347
332 -13 17 -33 40 -45 51 -13 11 -23 26 -23 33 0 6 -6 14 -12 17 -7 2 -31 31
-53 63 -22 33 -42 61 -45 64 -26 26 -130 202 -179 305 -18 39 -37 77 -42 87
-23 46 -84 219 -81 231 1 4 -3 7 -9 7 -5 0 -8 4 -5 8 3 5 -4 37 -14 72 -11 35
-22 78 -25 95 -2 16 -10 57 -15 90 -20 110 -25 178 -25 350 0 181 7 268 30
385 3 14 8 36 10 50 7 36 10 49 38 155 2 6 9 34 17 63 8 28 16 52 20 52 3 0 6
8 7 19 3 31 107 277 124 291 4 3 10 16 14 30 4 14 12 30 17 37 19 23 78 125
78 134 0 5 5 9 10 9 6 0 10 7 10 15 0 8 5 15 10 15 6 0 10 6 10 14 0 8 3 16 8
18 4 2 23 26 42 53 19 28 39 55 45 62 5 6 28 33 50 60 108 131 339 344 455
419 25 16 47 32 48 37 2 4 10 7 17 7 7 0 15 4 17 8 6 15 184 114 276 153 17 8
32 17 32 21 0 4 7 5 15 2 8 -4 15 -1 15 5 0 6 8 11 18 11 10 0 22 3 26 7 3 4
12 8 19 10 7 1 49 15 95 32 45 16 82 27 82 25 0 -3 8 0 18 5 11 6 30 12 43 15
46 10 71 15 87 20 9 3 35 8 57 11 23 3 52 8 65 11 110 23 584 26 640 3 3 -1
10 -3 15 -4 6 -1 30 -5 55 -10 25 -5 51 -8 58 -6 6 1 12 -2 12 -6 0 -4 10 -9
23 -9 27 -2 77 -12 97 -21 8 -3 20 -7 27 -9 20 -4 87 -25 108 -34 11 -4 58
-22 105 -40 85 -33 291 -128 300 -139 3 -4 17 -12 32 -18 57 -25 308 -194 412
-277 147 -119 415 -424 482 -551 22 -41 39 -70 45 -75 29 -22 187 -403 204
-489 2 -9 8 -34 14 -56 5 -22 13 -56 16 -75 3 -19 8 -42 10 -50 2 -8 7 -42 10
-75 4 -33 8 -73 11 -90 5 -41 6 -320 0 -370 -2 -22 -7 -65 -11 -95 -4 -30 -9
-64 -10 -75 -1 -11 -5 -38 -10 -60 -4 -22 -9 -47 -10 -55 -7 -39 -56 -219 -69
-257 -8 -22 -12 -44 -9 -47 4 -3 1 -6 -6 -6 -7 0 -10 -4 -6 -9 3 -5 1 -12 -5
-16 -5 -3 -10 -16 -10 -28 0 -13 -8 -34 -17 -47 -10 -14 -17 -26 -15 -27 1 -2
2 -4 1 -5 0 -2 -2 -10 -4 -18 -1 -9 -25 -64 -53 -123 -28 -59 -48 -107 -44
-107 4 0 1 -4 -7 -9 -8 -5 -16 -16 -17 -24 -1 -7 -19 -45 -41 -83 -21 -38 -42
-76 -46 -84 -4 -8 -19 -33 -32 -55 -14 -22 -28 -48 -32 -57 -3 -10 -9 -18 -13
-18 -4 0 -10 -9 -13 -20 -6 -25 -22 -20 -97 31 -30 20 -102 67 -160 104 -58
38 -157 102 -220 144 -63 42 -119 78 -125 81 -31 16 -131 84 -133 91 -2 5 -8
9 -13 9 -11 0 -182 110 -190 123 -3 5 -10 9 -15 9 -11 1 -83 46 -109 69 -11
10 -23 18 -28 18 -4 1 -55 32 -113 71 -58 38 -110 70 -115 70 -5 0 -9 4 -9 8
0 5 -10 14 -22 21 -13 6 -36 20 -53 31 -16 11 -43 27 -60 36 -16 9 -32 20 -35
23 -8 10 -65 45 -66 40 0 -2 -8 3 -17 11 -33 30 -75 58 -99 66 -10 4 -18 10
-18 14 0 4 -22 19 -49 33 -27 15 -54 34 -61 42 -7 8 -16 15 -21 15 -4 0 -55
30 -111 68 -57 37 -111 72 -119 77 -96 61 -174 112 -184 123 -8 6 -18 12 -24
12 -6 0 -11 5 -11 10 0 6 -5 10 -10 10 -10 0 -120 68 -130 81 -3 3 -16 12 -29
19 -22 11 -198 125 -441 286 -58 38 -109 71 -113 73 -5 2 -39 23 -75 48 -47
31 -68 40 -72 31 -3 -7 -18 -33 -34 -58 -25 -38 -56 -101 -96 -195 -20 -45
-51 -161 -56 -209 -3 -28 -9 -64 -12 -81 -15 -63 -1 -271 22 -350 8 -24 11
-46 8 -49 -2 -3 1 -12 8 -21 7 -8 10 -15 6 -15 -4 0 0 -13 9 -30 8 -16 15 -38
15 -48 0 -11 7 -25 15 -32 8 -6 14 -15 13 -18 -2 -7 33 -83 42 -92 3 -3 14
-21 24 -40 11 -19 30 -46 43 -60 13 -14 23 -28 23 -32 0 -4 35 -43 78 -86 77
-78 166 -147 253 -194 60 -33 1123 -741 1127 -750 2 -5 7 -8 12 -8 7 0 139
-86 165 -108 6 -5 15 -11 20 -13 20 -8 520 -344 523 -351 2 -5 7 -8 12 -8 7 0
201 -127 225 -148 6 -5 15 -11 20 -13 14 -6 459 -303 465 -310 3 -3 10 -8 15
-10 6 -2 66 -42 134 -88 138 -93 131 -92 211 -26 197 163 275 233 419 376 109
109 188 194 246 265 22 26 47 55 55 64 48 49 270 361 270 379 0 5 6 14 13 18
8 4 16 15 20 23 4 8 20 38 37 65 17 28 36 61 43 75 6 14 14 27 17 30 13 13
110 210 103 210 -4 0 -3 4 3 8 5 4 20 32 33 62 13 30 32 74 42 97 11 23 19 48
19 55 0 8 4 18 9 24 31 33 143 451 175 654 3 19 8 46 11 60 2 14 7 52 10 85
31 349 20 654 -35 950 -5 28 -11 61 -14 75 -2 14 -16 72 -31 130 -15 58 -28
110 -29 117 -1 7 -5 16 -9 19 -4 4 -7 18 -7 31 0 13 -4 31 -10 41 -5 9 -19 46
-30 82 -12 36 -24 72 -27 80 -4 8 -7 18 -8 23 -2 4 -4 9 -5 12 -1 3 -3 8 -4
13 -2 4 -7 18 -14 32 -6 14 -26 61 -45 105 -53 123 -107 234 -118 241 -5 3 -7
9 -4 14 3 5 -1 14 -8 22 -7 7 -30 45 -52 83 -21 39 -51 89 -67 112 -15 23 -28
46 -28 51 0 6 -4 12 -8 14 -5 2 -26 30 -47 63 -37 56 -161 224 -174 235 -3 3
-38 43 -77 90 -160 190 -402 413 -609 561 -60 44 -121 88 -135 99 -14 11 -31
20 -37 20 -7 0 -13 5 -13 10 0 6 -4 10 -9 10 -5 0 -46 23 -91 51 -97 60 -300
162 -425 214 -49 20 -101 42 -115 48 -14 6 -27 11 -30 12 -18 4 -58 18 -75 25
-23 10 -188 61 -207 64 -7 1 -19 5 -25 9 -7 5 -13 6 -13 3 0 -2 -15 0 -32 5
-18 6 -42 12 -53 14 -11 2 -31 6 -45 10 -29 7 -65 14 -100 19 -14 2 -25 5 -25
6 0 1 -16 3 -35 5 -19 2 -44 6 -55 8 -11 3 -51 8 -90 12 -38 4 -79 10 -90 12
-23 6 -521 14 -526 8z"/>
<path d="M12950 18430 c-7 -5 -5 -2145 2 -2267 2 -29 5 -53 8 -53 3 0 7 -12 8
-27 1 -16 7 -49 13 -74 6 -26 12 -55 14 -65 2 -11 4 -19 5 -19 1 0 3 -11 6
-25 2 -14 8 -34 13 -45 5 -11 17 -40 27 -65 16 -39 80 -158 117 -214 12 -18
37 -46 101 -114 54 -58 158 -131 246 -173 47 -23 92 -45 101 -49 20 -10 212
-57 264 -65 94 -14 178 -19 305 -19 119 0 265 10 280 19 3 2 23 6 45 9 22 4
78 18 125 33 47 15 88 26 93 25 4 -1 7 3 7 8 0 6 5 10 11 10 16 0 81 31 102
48 9 8 17 11 17 6 0 -5 4 -4 8 1 4 6 30 26 57 45 80 56 156 128 223 215 33 42
115 186 117 205 0 3 3 10 6 15 12 20 58 172 69 230 39 192 31 491 -17 670 -8
33 -16 68 -16 78 -1 9 -5 17 -9 17 -4 0 -8 7 -8 15 0 22 -99 224 -120 245 -3
3 -23 28 -45 55 -48 60 -176 185 -190 185 -2 0 -30 17 -62 39 -62 41 -243 117
-289 122 -16 2 -35 7 -41 12 -7 5 -20 7 -28 3 -8 -3 -15 -1 -15 5 0 5 -11 7
-25 5 -13 -3 -27 -1 -29 3 -7 11 -67 14 -256 15 -175 0 -236 -3 -255 -13 -5
-3 -17 -6 -25 -6 -66 -4 -253 -60 -316 -96 -19 -10 -41 -19 -49 -19 -8 0 -15
-4 -15 -9 0 -5 -8 -12 -19 -16 -10 -3 -28 -13 -40 -23 -11 -9 -37 -28 -57 -42
-43 -30 -132 -116 -190 -184 l-42 -49 0 692 c0 381 -3 695 -7 699 -8 8 -213
10 -225 2z m1450 -1191 c85 -19 113 -26 118 -29 2 -3 7 -4 40 -15 45 -15 142
-71 200 -117 58 -45 91 -89 194 -256 43 -70 118 -212 123 -233 1 -8 6 -24 10
-36 4 -12 6 -25 5 -29 -1 -4 3 -10 8 -13 15 -9 24 -76 25 -186 0 -110 -3 -125
-38 -228 -26 -73 -120 -257 -137 -268 -5 -3 -10 -10 -10 -15 -1 -12 -90 -148
-100 -152 -4 -2 -8 -9 -8 -16 0 -12 -76 -82 -109 -100 -9 -5 -18 -12 -21 -16
-7 -9 -155 -80 -177 -85 -10 -2 -47 -12 -83 -22 -36 -11 -77 -19 -92 -18 -16
1 -28 -2 -28 -5 0 -7 -270 -4 -325 4 -22 3 -53 8 -70 10 -59 8 -204 52 -215
65 -3 3 -30 18 -61 34 -57 28 -93 54 -139 97 -29 27 -140 194 -140 210 0 5 -4
10 -8 10 -13 0 -127 233 -153 310 -24 72 -33 218 -18 291 16 77 18 85 49 160
48 116 206 387 231 397 5 2 9 10 9 17 0 21 98 99 180 143 41 23 109 50 150 62
99 28 106 29 170 36 30 4 57 8 59 10 2 1 65 3 140 2 95 0 162 -6 221 -19z"/>
<path d="M15758 18430 c-3 -13 -5 -3247 -2 -3262 4 -14 22 -16 152 -13 81 1
150 3 154 4 4 0 8 737 8 1636 0 1283 -3 1635 -13 1636 -38 4 -297 3 -299 -1z"/>
<path d="M16572 18314 l-114 -115 116 -114 c64 -63 118 -115 121 -115 9 0 225
222 225 231 0 12 -217 229 -228 229 -4 0 -58 -52 -120 -116z"/>
<path d="M19698 18316 l-116 -114 116 -117 116 -117 18 22 18 23 20 -23 c23
-27 23 -27 77 55 22 33 54 81 72 108 l33 47 -41 61 c-23 34 -41 65 -41 70 0 5
-3 9 -7 9 -5 0 -21 20 -36 45 -16 25 -32 45 -36 45 -3 0 -13 -9 -21 -20 -14
-20 -14 -20 -36 1 l-21 20 -115 -115z"/>
<path d="M20866 18178 c-33 -17 -38 -17 -33 -4 4 10 1 16 -7 16 -17 0 -109
-42 -130 -59 -7 -6 -24 -14 -36 -16 -13 -2 -30 -10 -39 -18 -9 -7 -35 -21 -58
-31 -42 -18 -60 -40 -43 -51 5 -3 7 -12 4 -20 -9 -21 -10 -136 -2 -141 4 -3 5
-11 2 -19 -9 -22 -10 -136 -1 -142 4 -2 5 -9 1 -14 -8 -14 -9 -132 -1 -145 10
-17 -19 -37 -43 -31 -11 3 -20 2 -20 -1 0 -4 -39 -7 -86 -7 l-87 0 -17 -52
c-9 -29 -15 -55 -13 -57 3 -3 1 -11 -3 -18 -4 -7 -9 -22 -11 -33 -5 -32 -11
-60 -13 -60 -1 0 -3 -7 -5 -16 -1 -9 -6 -30 -9 -46 l-7 -28 153 0 153 0 2 -60
c0 -33 2 -64 3 -70 1 -5 2 -14 1 -19 -6 -30 -5 -139 1 -142 4 -3 5 -11 2 -19
-9 -21 -10 -136 -2 -141 4 -3 5 -11 2 -19 -9 -21 -10 -136 -2 -141 4 -3 5 -11
2 -19 -9 -21 -10 -136 -2 -141 4 -3 5 -11 2 -19 -9 -21 -10 -136 -2 -141 4 -3
5 -11 2 -19 -9 -22 -10 -136 -1 -142 4 -2 5 -9 1 -14 -19 -32 7 -327 40 -456
3 -13 9 -33 12 -45 3 -13 6 -27 8 -33 8 -32 21 -69 53 -146 l36 -85 81 -45
c100 -54 173 -86 217 -95 19 -3 45 -8 59 -11 38 -7 500 -11 501 -4 1 3 2 68 3
143 l1 137 -26 -25 c-25 -24 -48 -31 -50 -16 -1 4 -2 19 -3 35 -2 15 -6 30 -9
33 -11 11 -56 -25 -63 -50 -5 -23 -8 -24 -87 -21 -45 2 -89 5 -97 7 -111 29
-258 169 -267 255 -1 12 -6 38 -12 57 -6 22 -10 317 -11 754 l-1 718 213 -1
c117 0 223 1 236 3 18 4 22 11 22 41 0 36 1 37 38 37 l37 -1 0 117 0 116 -46
-1 c-25 0 -51 3 -57 7 -7 4 -12 3 -12 -1 0 -5 -27 -6 -60 -3 -33 3 -60 2 -60
-2 0 -5 -9 -4 -20 2 -11 6 -20 7 -20 3 0 -4 -45 -6 -100 -3 -55 3 -100 1 -100
-3 0 -4 -9 -3 -20 3 -13 7 -20 7 -20 1 0 -6 -7 -8 -15 -5 -13 5 -15 57 -17
354 l-3 348 -39 -20z"/>
<path d="M28580 17853 c-25 -15 -47 -29 -50 -32 -6 -8 -41 -29 -60 -38 -8 -4
-45 -26 -83 -50 -37 -24 -71 -43 -76 -43 -4 0 -16 -9 -26 -20 -10 -11 -21 -17
-25 -15 -5 3 -10 2 -12 -3 -1 -4 -65 -46 -142 -92 -76 -47 -153 -94 -171 -105
-18 -11 -55 -33 -82 -49 -26 -16 -50 -32 -53 -35 -3 -4 -16 -12 -30 -19 -14
-6 -56 -32 -95 -57 -38 -25 -81 -51 -95 -58 -14 -6 -29 -15 -35 -20 -18 -14
-117 -77 -121 -77 -3 0 -28 -16 -57 -35 -28 -19 -57 -35 -64 -35 -7 0 -13 -5
-13 -10 0 -6 -10 -14 -23 -19 -13 -5 -43 -22 -68 -38 -45 -30 -372 -232 -434
-268 -115 -68 -135 -81 -135 -87 0 -5 -7 -8 -15 -8 -8 0 -15 -6 -15 -13 0 -6
-11 -33 -25 -60 -14 -26 -22 -47 -18 -47 5 0 3 -4 -2 -8 -6 -4 -21 -32 -35
-62 -13 -30 -31 -63 -39 -72 -8 -10 -11 -18 -7 -18 4 0 -2 -17 -13 -37 -19
-35 -45 -89 -180 -376 -28 -60 -51 -113 -51 -118 0 -5 -5 -9 -10 -9 -6 0 -9
-3 -8 -7 1 -5 -9 -33 -24 -63 -14 -30 -45 -95 -68 -145 -23 -49 -65 -137 -93
-195 -28 -58 -50 -108 -49 -112 1 -3 -5 -12 -13 -18 -8 -7 -15 -18 -15 -25 0
-6 -8 -27 -17 -46 -28 -55 -27 -56 56 -59 80 -2 101 -3 331 -15 80 -4 192 -8
250 -10 58 -2 105 -5 105 -5 0 -2 77 -5 266 -13 47 -2 90 -7 96 -10 7 -4 14
-3 18 3 4 6 11 8 16 5 5 -4 57 -8 116 -11 60 -2 144 -7 188 -9 128 -9 171 -9
186 1 8 5 21 13 30 19 9 5 48 29 85 53 38 24 78 48 89 55 10 7 25 18 33 25 7
6 20 12 28 12 8 0 17 7 20 15 4 8 10 15 14 15 11 0 224 133 228 142 2 5 8 8
14 8 5 0 29 14 53 30 24 17 48 30 54 30 6 0 11 4 11 8 0 5 15 16 33 26 47 25
73 41 157 95 41 27 161 102 265 167 105 65 195 122 200 127 6 4 60 39 120 76
264 165 310 195 313 203 2 4 9 8 15 8 7 1 71 39 142 86 72 46 140 89 152 94
44 18 42 22 -71 185 -12 17 -24 32 -28 33 -5 2 -8 9 -8 14 0 6 -18 35 -40 64
-22 29 -40 57 -40 63 0 5 -3 11 -8 13 -4 2 -32 39 -61 83 -85 125 -95 140
-103 143 -5 2 -8 9 -8 16 0 7 -9 21 -20 31 -11 10 -20 23 -20 30 0 7 -9 20
-20 30 -11 10 -20 22 -20 27 0 5 -6 15 -12 22 -7 8 -19 22 -25 32 -7 11 -35
52 -63 92 -27 41 -50 77 -50 82 0 5 -4 10 -9 12 -7 3 -49 62 -77 109 -6 11
-18 27 -27 37 -10 10 -17 24 -17 30 0 6 -6 15 -13 19 -7 4 -30 36 -52 70 -22
35 -43 63 -47 63 -5 0 -8 5 -8 11 0 16 -123 189 -135 189 -5 0 -30 -12 -55
-27z m-800 -892 c0 -75 -4 -82 -53 -88 -20 -2 -44 -17 -68 -43 -35 -38 -36
-40 -26 -79 6 -23 15 -41 19 -41 4 0 8 -6 8 -13 0 -8 10 -23 23 -35 l23 -21
69 34 c38 19 75 35 81 35 12 0 74 -59 74 -70 0 -3 -34 -41 -77 -84 -42 -43
-72 -81 -67 -84 5 -4 54 -68 109 -142 55 -74 104 -140 110 -146 5 -7 19 -24
30 -40 11 -15 31 -42 45 -60 14 -18 41 -55 60 -81 19 -26 37 -50 41 -53 3 -3
19 -26 36 -51 l31 -45 -74 -72 c-40 -40 -77 -72 -81 -72 -5 0 -28 37 -51 83
-67 127 -97 182 -102 187 -3 3 -10 14 -16 25 -6 11 -30 56 -54 100 -24 44 -50
91 -59 105 -9 14 -32 55 -51 91 -57 113 -48 108 -136 65 -41 -21 -76 -37 -78
-35 -1 2 -19 36 -39 76 -28 54 -34 74 -24 80 6 4 37 20 67 36 30 16 59 32 63
36 4 5 -26 41 -68 82 l-76 75 -1 70 c-1 69 6 99 21 89 5 -2 26 11 48 30 23 19
53 39 67 45 15 5 25 14 22 19 -13 20 49 56 102 59 l52 3 0 -70z m663 -6 c20
-42 37 -77 37 -78 0 -2 -15 -4 -32 -5 -63 -5 -124 -63 -122 -116 2 -32 -1 -36
-21 -36 -33 0 -39 -16 -16 -39 20 -20 51 -74 51 -88 0 -14 12 -48 19 -53 18
-13 115 -168 277 -441 4 -8 -113 -70 -142 -75 -14 -3 -24 2 -27 14 -4 9 -18
35 -31 57 -14 22 -30 49 -36 60 -5 11 -28 49 -50 84 -22 34 -40 67 -40 72 0 5
-4 9 -10 9 -5 0 -10 6 -10 14 0 7 -8 24 -18 37 -10 13 -30 44 -43 69 -13 25
-28 49 -32 55 -11 14 -51 79 -52 85 0 3 -8 16 -17 30 -36 56 -84 137 -97 161
-12 25 -11 29 23 63 l36 37 20 -33 c11 -18 26 -47 32 -65 21 -58 33 -46 30 29
l-4 69 54 52 c60 57 83 74 125 93 50 22 57 17 96 -61z m-627 -1324 c36 -67 43
-101 21 -101 -7 0 -39 -13 -70 -30 -32 -16 -60 -30 -62 -30 -10 0 -78 154 -70
157 6 3 37 19 70 37 33 19 64 33 69 32 4 -1 24 -30 42 -65z"/>
<path d="M24748 17575 c-2 -1 -28 -5 -58 -9 -30 -3 -82 -15 -115 -26 -33 -11
-68 -23 -77 -26 -10 -4 -18 -11 -18 -16 0 -5 -4 -7 -9 -3 -5 3 -12 1 -15 -4
-3 -4 -20 -12 -38 -16 -18 -4 -35 -8 -38 -9 -3 -1 -27 -12 -55 -26 -45 -22
-73 -41 -115 -80 -8 -8 -29 -22 -45 -30 -51 -26 -127 -112 -156 -176 -54 -118
-71 -356 -31 -430 6 -12 8 -24 5 -28 -3 -3 -1 -6 6 -6 7 0 10 -4 7 -9 -11 -17
65 -144 113 -191 27 -26 75 -59 116 -77 71 -33 126 -56 135 -57 7 -1 84 -25
140 -44 25 -8 86 -25 136 -37 71 -18 103 -32 145 -64 67 -51 181 -107 232
-114 50 -7 91 -60 103 -136 9 -54 11 -321 2 -321 -4 0 -5 -6 -2 -14 12 -32
-44 -156 -70 -156 -5 0 -17 -7 -26 -15 -9 -8 -25 -16 -36 -18 -10 -1 -24 -6
-30 -9 -6 -4 -21 -9 -35 -12 -13 -3 -40 -9 -59 -14 -37 -9 -165 -7 -215 2 -16
4 -41 8 -55 10 -14 2 -36 8 -50 14 -14 5 -29 11 -35 12 -71 18 -220 96 -264
138 -8 7 -25 20 -38 29 -22 14 -25 14 -43 -2 -11 -10 -20 -13 -20 -8 0 18 -27
23 -54 10 -14 -7 -26 -15 -26 -19 0 -5 -7 -8 -15 -8 -8 0 -15 -4 -15 -10 0 -5
-6 -10 -12 -10 -7 0 -26 -11 -42 -25 -16 -13 -37 -27 -47 -30 -11 -4 -19 -11
-19 -16 0 -5 -7 -9 -15 -9 -19 0 -19 -19 0 -26 8 -4 12 -10 9 -15 -3 -5 -2 -9
3 -9 4 0 26 -17 48 -36 109 -97 103 -93 205 -162 61 -40 183 -102 204 -102 7
0 16 -3 20 -7 3 -4 13 -8 21 -10 29 -6 50 -11 50 -13 0 -1 18 -4 40 -6 53 -5
73 -9 79 -15 7 -6 237 -2 276 6 19 4 49 8 65 10 108 11 252 78 316 148 22 22
39 44 39 47 0 4 18 26 41 51 110 120 175 248 196 388 12 82 6 233 -12 301 -31
118 -112 226 -230 304 -72 47 -162 96 -178 96 -8 0 -20 7 -27 15 -6 8 -15 14
-18 13 -4 -1 -20 4 -37 11 -16 7 -73 14 -125 16 -69 2 -114 10 -165 28 -79 27
-172 72 -193 93 -7 8 -17 14 -21 14 -8 0 -78 66 -103 98 -27 33 -56 130 -52
171 11 121 48 189 159 299 55 54 81 72 102 73 142 4 211 -1 268 -17 63 -19
188 -88 231 -129 17 -15 92 -76 98 -78 5 -3 76 103 76 114 0 16 18 10 50 -17
l31 -26 76 77 c64 64 74 79 62 90 -21 19 -291 200 -314 210 -11 4 -23 7 -27 7
-5 -1 -8 2 -8 7 0 5 -12 12 -27 17 -35 9 -35 9 -55 18 -9 4 -25 9 -35 11 -10
2 -20 4 -23 6 -3 1 -9 3 -15 4 -5 1 -26 5 -46 9 -34 7 -195 16 -201 11z"/>
<path d="M7945 17500 c-11 -4 -24 -5 -28 -3 -5 3 -18 2 -30 -1 l-22 -5 2
-1523 c1 -838 2 -1556 3 -1596 l0 -74 33 8 c17 4 40 8 50 8 9 0 17 5 17 10 0
5 3 7 6 4 3 -4 20 -2 37 3 18 6 43 13 57 16 50 10 55 11 55 13 0 1 11 4 25 6
13 2 27 8 30 13 3 5 5 281 4 613 0 331 1 607 4 611 2 5 17 -10 34 -32 16 -23
34 -41 39 -41 5 0 9 -6 9 -14 0 -8 4 -16 9 -18 5 -1 30 -22 55 -46 51 -47 190
-150 221 -162 11 -4 49 -22 85 -38 54 -25 110 -45 165 -58 134 -32 193 -38
365 -37 205 1 313 15 460 60 47 15 88 26 93 25 4 -1 7 2 7 8 0 5 6 10 13 10
26 0 207 109 248 149 9 9 27 25 40 37 77 67 166 188 217 296 18 37 32 69 32
72 0 2 5 17 12 33 6 15 13 39 15 53 2 13 7 27 11 30 4 3 8 19 10 35 2 17 8 47
13 68 31 117 32 393 3 579 -12 80 -65 248 -87 276 -5 6 -6 12 -3 12 4 0 -2 13
-13 29 -12 16 -21 36 -21 45 0 9 -4 16 -8 16 -5 0 -15 12 -23 28 -8 15 -16 29
-19 32 -3 3 -18 23 -35 45 -16 22 -58 67 -92 101 -162 159 -377 255 -648 291
-66 9 -388 9 -445 0 -25 -4 -61 -9 -80 -12 -69 -10 -226 -63 -280 -96 -8 -4
-31 -16 -50 -26 -19 -9 -44 -25 -54 -35 -11 -10 -25 -18 -32 -18 -7 0 -14 -4
-16 -8 -1 -4 -23 -23 -47 -42 -67 -53 -189 -180 -173 -180 8 0 -20 -20 -28
-20 -3 0 -6 100 -5 223 l0 222 -42 6 c-24 3 -43 2 -43 -3 0 -5 -9 -4 -20 2
-11 6 -20 7 -20 3 0 -8 -73 -9 -87 0 -4 2 -17 1 -28 -3z m1302 -246 c71 -8
100 -14 188 -39 33 -10 62 -18 65 -17 3 0 16 -5 30 -12 239 -117 293 -153 332
-221 68 -120 126 -245 129 -280 0 -5 5 -15 11 -22 5 -7 11 -22 13 -35 3 -21
19 -100 32 -158 6 -27 6 -266 0 -290 -2 -8 -7 -33 -11 -55 -10 -48 -44 -170
-59 -205 -6 -14 -11 -27 -11 -30 -7 -33 -119 -233 -146 -261 -58 -60 -293
-170 -445 -208 -83 -21 -103 -23 -225 -23 -120 0 -148 2 -234 17 -137 23 -309
104 -395 184 -24 23 -136 182 -154 221 -4 8 -21 38 -37 65 -55 93 -100 194
-125 280 -23 82 -24 264 -1 325 3 8 11 29 17 45 7 17 14 38 15 47 5 23 102
208 120 229 8 9 11 19 7 22 -3 4 -1 7 5 7 7 0 12 4 12 10 0 11 62 103 73 108
4 2 7 9 7 16 0 14 65 85 110 121 32 26 190 108 190 99 0 -3 7 -1 15 6 8 7 15
10 15 6 0 -4 13 0 29 8 16 9 30 13 33 11 2 -2 28 2 58 10 30 8 102 18 160 21
58 4 107 8 109 10 2 2 7 1 12 -1 4 -3 29 -8 56 -11z"/>
<path d="M10703 17497 c-2 -4 -9 -5 -14 -2 -10 7 -10 -24 -9 -975 0 -333 3
-621 5 -640 3 -19 7 -53 9 -75 12 -106 72 -243 146 -331 27 -32 64 -79 81
-104 33 -46 144 -160 156 -160 3 0 14 -6 22 -14 34 -31 169 -90 231 -102 8 -2
31 -6 50 -10 75 -14 290 -5 344 16 14 5 26 8 26 5 0 -7 101 32 113 44 6 6 19
11 29 11 10 0 18 5 18 10 0 6 5 10 11 10 6 0 40 23 75 51 80 63 184 189 231
279 8 15 13 19 14 10 0 -8 1 -30 2 -48 1 -17 -2 -32 -6 -32 -4 0 -4 -7 1 -16
5 -8 6 -36 2 -60 -4 -25 -3 -47 2 -50 4 -3 4 -13 -2 -23 -6 -12 -5 -22 1 -28
8 -8 7 -13 0 -17 -8 -5 -8 -13 -1 -27 8 -13 7 -19 0 -19 -7 0 -8 -6 -1 -19 6
-10 8 -21 5 -23 -2 -3 65 -5 151 -4 85 0 156 3 156 6 3 15 4 2317 1 2327 -2 7
-35 12 -99 12 -52 1 -99 3 -104 7 -5 3 -9 1 -9 -5 0 -6 -11 -6 -30 -1 -16 5
-30 5 -30 1 0 -4 -10 -7 -22 -7 -16 1 -22 -4 -19 -14 8 -35 8 -46 -1 -62 -6
-12 -5 -18 2 -18 6 0 8 -5 5 -11 -10 -15 -12 -79 -3 -79 3 0 3 -13 -2 -30 -5
-16 -6 -30 -2 -30 9 0 8 -53 -2 -68 -3 -6 -2 -13 3 -17 6 -3 7 -13 4 -23 -4
-9 -6 -32 -5 -52 2 -19 2 -44 2 -55 -2 -32 -1 -39 3 -60 2 -11 0 -28 -5 -37
-6 -12 -5 -18 2 -18 6 0 8 -5 5 -11 -10 -15 -12 -79 -3 -79 3 0 3 -13 -2 -30
-5 -16 -6 -30 -2 -30 9 0 8 -53 -2 -68 -3 -6 -2 -13 3 -17 6 -3 7 -13 4 -22
-8 -21 -9 -64 -1 -84 3 -7 2 -23 -2 -34 -4 -11 -4 -28 1 -37 6 -10 5 -19 -1
-23 -6 -4 -6 -15 0 -30 5 -14 6 -25 2 -25 -7 0 -8 -37 -2 -65 1 -5 1 -12 0
-15 -5 -12 -5 -60 0 -60 7 0 5 -54 -4 -68 -3 -6 -2 -13 4 -17 6 -4 8 -11 4
-16 -9 -15 -11 -78 -3 -91 4 -6 4 -21 -1 -33 -5 -12 -4 -28 0 -35 5 -8 6 -19
2 -25 -3 -5 -7 -23 -7 -40 -2 -47 -16 -115 -24 -115 -4 0 -8 -7 -8 -15 0 -13
-38 -96 -55 -120 -28 -39 -105 -133 -118 -145 -9 -8 -22 -25 -29 -38 -70 -131
-217 -207 -421 -216 -333 -16 -508 156 -575 564 -5 25 -9 389 -11 810 -1 421
-3 775 -3 787 -1 19 -6 22 -34 21 -19 -1 -39 2 -45 6 -7 4 -12 2 -12 -4 0 -8
-6 -8 -20 0 -11 6 -20 7 -20 3 0 -4 -34 -6 -76 -3 -42 3 -78 2 -81 -3z"/>
<path d="M16660 17503 c0 -5 -26 -7 -59 -5 -49 2 -59 0 -62 -15 -4 -15 -3
-2305 0 -2323 1 -3 71 -6 156 -7 l155 -1 0 1173 0 1173 -35 4 c-19 2 -35 0
-35 -4 0 -5 -9 -4 -19 2 -14 7 -22 7 -26 0 -5 -8 -11 -7 -21 1 -11 9 -14 9
-14 0 0 -9 -5 -9 -20 -1 -11 6 -20 7 -20 3z"/>
<path d="M19780 17500 c0 -3 -27 -4 -60 -3 l-60 3 0 -1173 0 -1172 152 -2 c84
-1 155 2 158 7 3 4 5 532 5 1172 l-1 1163 -97 5 c-53 3 -97 3 -97 0z"/>
<path d="M18258 17495 c-2 -2 -23 -6 -48 -9 -146 -19 -383 -90 -402 -120 -4
-6 -8 -8 -8 -4 0 9 -97 -49 -124 -74 -11 -10 -24 -18 -29 -18 -13 0 -173 -165
-194 -200 -9 -17 -21 -30 -25 -30 -4 0 -8 -4 -8 -10 0 -5 -13 -32 -30 -60 -16
-28 -30 -57 -30 -65 0 -7 -5 -15 -11 -17 -5 -2 -11 -10 -13 -18 -2 -8 -6 -22
-9 -30 -36 -97 -72 -238 -63 -248 3 -3 1 -10 -4 -17 -10 -12 -21 -140 -21
-245 0 -119 14 -250 33 -325 5 -22 11 -47 13 -55 2 -8 9 -35 16 -60 7 -25 12
-48 11 -52 -1 -5 2 -8 8 -8 5 0 10 -7 10 -15 0 -23 82 -175 130 -240 49 -67
145 -162 205 -203 22 -15 42 -30 45 -33 20 -26 267 -131 338 -144 15 -3 38 -7
52 -10 63 -14 183 -27 206 -22 13 2 24 1 24 -3 0 -9 471 -5 525 4 61 10 175
46 217 67 21 11 38 17 38 13 0 -3 12 4 26 15 15 12 33 21 40 21 8 0 14 4 14 8
0 5 12 14 28 21 40 19 122 73 122 82 0 13 -35 69 -42 69 -5 0 -8 4 -8 9 0 10
-63 106 -87 133 -14 16 -18 16 -44 2 -26 -13 -29 -13 -29 1 0 15 -29 18 -40 4
-5 -5 -28 -19 -130 -76 -50 -27 -180 -81 -215 -89 -16 -4 -36 -11 -42 -17 -7
-5 -13 -7 -13 -4 0 4 -44 -4 -105 -20 -28 -7 -268 -11 -280 -4 -11 6 -11 6
-75 16 -24 4 -52 11 -62 16 -10 5 -18 7 -18 5 0 -16 -221 94 -311 154 -49 34
-109 104 -109 129 0 5 -7 14 -15 21 -8 7 -15 19 -15 27 0 8 -7 21 -15 29 -8 9
-15 24 -15 35 0 10 -4 19 -10 19 -5 0 -10 7 -10 15 0 8 -4 23 -10 33 -5 9 -20
51 -34 92 -70 212 -69 465 4 681 31 94 108 262 122 267 4 2 8 8 8 14 0 17 54
88 68 88 6 0 12 5 12 10 0 6 7 10 15 10 8 0 15 5 15 10 0 6 6 10 14 10 8 0 16
3 18 8 7 15 200 113 229 115 10 1 19 4 19 8 0 5 72 24 140 36 14 3 79 7 145 9
124 4 242 -14 345 -50 25 -9 49 -18 55 -19 22 -5 214 -103 251 -128 37 -25 42
-26 57 -12 14 15 18 15 43 -2 16 -10 29 -14 31 -9 2 5 37 58 78 119 85 127 92
108 -63 185 -87 43 -245 99 -327 115 -157 32 -200 36 -427 39 -109 2 -199 2
-200 1z"/>
<path d="M22685 17489 c-113 -15 -137 -19 -193 -34 -251 -64 -453 -200 -604
-403 -24 -31 -47 -60 -51 -63 -5 -3 -8 -9 -8 -13 1 -3 -12 -32 -28 -64 -31
-62 -71 -171 -76 -212 -2 -14 -6 -38 -10 -53 -3 -15 -7 -45 -8 -67 -1 -22 -5
-40 -8 -40 -9 0 -5 -393 4 -407 5 -7 5 -17 2 -23 -3 -5 -3 -15 1 -22 4 -6 9
-23 10 -37 5 -49 11 -76 24 -121 7 -25 14 -49 16 -55 10 -47 91 -217 107 -223
4 -2 7 -8 7 -12 0 -37 154 -204 250 -273 84 -59 210 -123 233 -119 4 1 7 -2 7
-8 0 -6 3 -9 8 -8 4 0 14 -2 22 -5 23 -9 170 -45 213 -51 100 -16 140 -18 247
-19 108 0 213 7 270 18 104 20 144 29 205 47 39 12 74 25 80 30 5 4 17 8 27 8
10 0 18 5 18 11 0 5 4 8 9 5 8 -5 104 41 181 87 66 39 145 91 151 100 7 10 10
307 3 307 -5 0 -86 -52 -94 -60 -15 -15 -118 -80 -127 -80 -6 0 -13 -3 -15 -7
-4 -10 -54 -41 -90 -56 -16 -6 -28 -15 -28 -19 0 -4 -9 -8 -20 -8 -11 0 -20
-3 -20 -7 0 -5 -21 -16 -48 -26 -26 -11 -56 -23 -67 -28 -36 -16 -165 -58
-165 -53 0 3 -9 0 -19 -6 -11 -5 -39 -12 -64 -13 -24 -2 -48 -6 -53 -9 -12 -8
-266 -7 -279 1 -5 3 -19 6 -30 7 -11 0 -34 4 -50 9 -17 4 -40 9 -51 10 -37 5
-187 80 -239 120 -107 82 -211 200 -297 336 l-36 56 37 19 c20 10 77 41 127
69 50 27 97 51 104 53 6 1 18 9 26 17 8 7 24 17 37 21 12 4 24 9 27 13 3 3 32
20 65 37 33 17 98 52 145 78 47 25 110 58 140 73 30 15 57 30 60 33 3 3 19 12
35 20 17 8 32 17 35 20 5 5 103 57 210 112 36 18 67 36 68 41 2 4 8 7 13 7 5
0 27 11 49 25 22 14 40 23 40 19 0 -3 12 3 28 14 15 10 74 43 132 73 58 30
107 57 110 60 3 3 39 22 80 43 41 21 82 44 90 50 8 6 51 29 95 51 44 22 82 43
83 48 2 4 10 7 18 7 25 0 15 27 -42 106 -59 84 -231 258 -264 269 -11 3 -20
11 -20 16 0 6 -4 8 -9 5 -5 -4 -11 -2 -13 3 -9 24 -230 112 -314 125 -22 4
-47 9 -56 12 -52 16 -363 25 -453 13z m320 -233 c33 -4 67 -8 75 -9 8 -2 33
-8 55 -12 49 -11 46 -10 70 -19 68 -26 150 -73 209 -122 76 -62 76 -69 -1
-109 -21 -10 -57 -32 -80 -47 -23 -15 -44 -28 -47 -28 -3 0 -24 -12 -48 -27
-24 -16 -52 -33 -63 -40 -11 -6 -58 -35 -104 -62 -47 -28 -88 -51 -93 -51 -4
0 -8 -4 -8 -10 0 -5 -5 -10 -11 -10 -6 0 -30 -12 -53 -27 -22 -16 -58 -37 -78
-48 -21 -11 -38 -23 -38 -27 0 -5 -9 -8 -19 -8 -11 0 -21 -4 -23 -8 -3 -9
-396 -245 -415 -250 -7 -2 -13 -8 -13 -13 0 -5 -4 -9 -9 -9 -5 0 -90 -49 -190
-110 -100 -60 -185 -110 -189 -110 -9 0 -7 320 2 365 3 17 9 44 12 61 8 52 63
197 76 206 7 4 10 8 6 8 -10 0 59 117 83 141 11 11 19 23 19 28 0 4 38 46 84
92 91 91 111 109 122 109 4 0 15 6 23 14 29 24 221 113 221 101 0 -2 12 0 28
6 15 6 43 13 62 15 19 3 60 8 90 12 59 8 148 7 245 -2z"/>
<path d="M24692 14645 l-112 -113 98 -99 c149 -149 135 -141 163 -96 13 21 27
40 31 41 4 2 8 10 8 18 0 8 5 14 10 14 6 0 10 5 10 10 0 11 34 63 58 88 6 7
12 16 12 18 0 9 -153 234 -159 234 -3 -1 -57 -52 -119 -115z"/>
<path d="M15220 14382 c-74 -37 -136 -70 -138 -74 -2 -5 -9 -8 -16 -8 -9 0
-13 -62 -13 -262 -1 -145 -2 -269 -2 -276 -1 -10 -34 -12 -155 -10 l-154 3
-23 -90 c-13 -49 -24 -92 -25 -95 0 -3 -4 -23 -9 -45 -4 -22 -8 -42 -7 -45 0
-3 -4 -10 -9 -16 -20 -24 21 -30 199 -29 124 1 182 -2 183 -9 0 -6 2 -337 4
-736 2 -399 6 -736 8 -750 6 -30 18 -115 22 -150 1 -14 5 -32 8 -40 3 -8 8
-31 11 -51 7 -49 61 -200 100 -279 49 -102 148 -187 249 -215 4 -2 8 -3 10 -5
4 -3 40 -10 77 -15 19 -2 35 -5 35 -6 0 -1 58 -2 129 -4 129 -2 130 -1 199 32
38 19 74 39 81 46 7 8 9 47 6 123 l-5 110 -145 0 c-177 -1 -253 8 -296 35 -43
26 -133 154 -149 212 -2 4 -3 8 -5 10 -3 4 -10 39 -16 87 -8 53 -11 1589 -4
1599 3 4 142 7 310 7 l305 0 3 157 3 157 -310 0 c-238 0 -310 3 -313 13 -2 6
-3 164 -3 350 1 185 -1 337 -4 336 -4 0 -67 -30 -141 -67z"/>
<path d="M17388 13825 c-2 -2 -23 -5 -48 -8 -140 -18 -330 -97 -417 -172 -6
-5 -26 -21 -44 -35 -85 -64 -289 -297 -289 -329 0 -6 -4 -11 -9 -11 -5 0 -14
-14 -21 -30 -7 -17 -15 -28 -18 -25 -3 3 -6 123 -6 268 l-1 262 -119 3 c-107
2 -118 1 -112 -14 3 -9 1 -23 -5 -30 -6 -8 -7 -14 -2 -14 10 0 10 -101 -1
-118 -3 -6 -3 -13 1 -15 10 -6 9 -209 0 -224 -4 -7 -4 -14 1 -17 10 -6 9 -77
-1 -94 -5 -6 -4 -12 1 -12 10 0 9 -101 -2 -118 -3 -6 -3 -13 1 -15 10 -6 9
-209 0 -225 -4 -6 -3 -13 3 -17 10 -6 7 -45 -4 -64 -4 -5 -3 -12 1 -14 10 -6
9 -209 0 -225 -4 -6 -4 -13 0 -15 10 -6 9 -399 -1 -415 -4 -7 -3 -12 2 -12 10
0 9 -101 -2 -118 -3 -6 -3 -13 1 -15 10 -6 9 -209 0 -224 -4 -7 -4 -14 1 -17
10 -6 9 -77 -1 -94 -5 -6 -5 -12 0 -12 4 0 7 -96 7 -212 -1 -117 1 -217 3
-221 3 -4 10 -4 17 2 6 5 23 12 36 14 14 2 36 8 50 14 14 5 48 18 76 28 l51
18 0 521 c1 464 5 642 18 741 2 17 7 53 11 80 4 28 7 58 8 68 0 9 3 17 7 17 4
0 6 7 5 16 -1 9 6 46 16 83 11 36 21 71 22 76 2 6 6 18 10 27 4 9 8 22 9 30 4
24 90 198 99 198 4 0 8 6 8 13 0 29 144 182 220 234 66 44 187 105 215 108 6
0 15 4 21 7 6 4 22 9 37 12 15 4 39 8 53 11 15 3 43 9 63 13 34 7 39 14 107
147 40 77 74 148 77 157 4 16 -4 17 -74 16 -43 -1 -80 -2 -81 -3z"/>
<path d="M24337 13825 c-1 -2 -22 -5 -47 -9 -71 -9 -95 -15 -172 -42 -77 -28
-201 -91 -206 -105 -2 -5 -8 -9 -14 -9 -13 0 -90 -63 -159 -130 -89 -87 -182
-207 -237 -305 -14 -25 -14 -31 -15 288 l-1 238 -115 -3 -116 -3 -2 -1280 c-2
-1252 0 -1323 27 -1287 3 4 50 22 106 40 l100 32 1 518 c0 476 5 675 18 760 3
17 7 47 10 65 3 17 8 50 11 72 4 22 19 86 35 142 59 209 131 336 267 471 46
45 90 82 98 82 8 0 14 4 14 8 0 23 253 124 342 136 21 3 43 7 50 8 16 4 38 40
32 50 -3 5 -1 8 4 8 5 0 24 34 42 75 18 41 38 75 43 75 6 0 7 3 4 7 -4 3 0 17
8 30 9 13 20 34 25 47 l9 24 -80 -1 c-43 0 -80 -1 -82 -2z"/>
<path d="M20217 13748 c-8 -5 -11 -494 -11 -1713 -1 -939 1 -1710 4 -1714 7
-10 292 -8 308 2 10 7 10 12 1 23 -9 11 -9 14 0 14 7 0 9 5 5 12 -9 14 -8 107
0 116 3 3 1 11 -5 19 -9 10 -8 13 0 13 7 0 9 5 5 12 -9 14 -8 107 0 116 3 3 1
11 -5 19 -9 10 -8 13 0 13 7 0 9 5 5 12 -9 14 -8 107 0 116 3 3 1 11 -5 19 -9
10 -8 13 0 13 7 0 9 5 5 12 -9 14 -8 107 0 116 3 3 1 11 -5 19 -9 10 -8 13 0
13 7 0 9 5 5 12 -9 14 -8 107 0 116 3 3 1 11 -5 19 -9 10 -8 13 0 13 7 0 9 5
5 12 -9 14 -8 107 0 116 3 3 1 11 -5 19 -9 10 -8 13 0 13 7 0 9 5 5 12 -9 14
-8 107 0 116 3 3 1 11 -5 19 -9 9 -8 13 0 13 9 0 9 5 1 20 -8 14 -8 20 0 20 6
0 8 5 3 12 -9 16 -10 45 -1 81 4 15 4 27 0 27 -4 0 -7 16 -7 35 0 43 5 44 29
4 58 -98 173 -224 276 -303 90 -68 258 -146 350 -162 14 -3 32 -7 40 -9 113
-32 428 -38 565 -11 11 3 20 5 20 6 0 1 14 3 31 5 48 7 193 54 245 81 26 13
49 20 53 17 3 -4 6 -1 6 5 0 7 7 12 15 12 8 0 15 5 15 10 0 6 5 10 12 10 10 0
105 56 118 70 3 3 23 18 45 35 99 73 204 182 287 296 45 62 126 209 133 240 4
16 11 29 17 29 6 0 8 7 5 15 -4 8 -2 17 2 19 8 5 38 103 47 154 3 14 7 29 10
33 11 19 19 129 18 274 -1 170 -7 208 -64 372 -28 81 -138 305 -152 311 -5 2
-8 10 -8 18 0 8 -4 14 -10 14 -5 0 -10 5 -10 11 0 5 -19 38 -42 72 -85 126
-127 171 -217 234 -25 18 -50 36 -56 41 -36 29 -214 103 -285 118 -19 4 -39 9
-45 11 -5 1 -37 7 -70 13 -33 6 -73 13 -90 16 -49 10 -425 12 -459 3 -17 -4
-51 -11 -76 -14 -24 -4 -52 -11 -62 -16 -10 -5 -18 -8 -18 -5 0 5 -72 -17
-120 -37 -49 -20 -74 -29 -79 -27 -2 1 -7 -2 -10 -7 -3 -4 -31 -21 -61 -37
-57 -31 -123 -76 -128 -88 -2 -5 -8 -8 -14 -8 -15 0 -186 -178 -193 -201 -4
-10 -10 -19 -14 -19 -3 0 -15 -13 -24 -30 -10 -16 -22 -30 -26 -30 -8 0 -5 65
4 80 3 6 2 10 -3 10 -6 0 -7 14 -2 34 5 22 3 39 -3 45 -8 8 -7 11 2 11 7 0 9
5 5 12 -9 14 -8 107 0 116 3 3 1 11 -5 19 -9 10 -8 13 0 13 7 0 9 5 5 12 -9
14 -8 103 0 117 4 5 2 12 -3 15 -5 3 -7 15 -4 25 5 19 -2 20 -142 23 -81 2
-152 0 -158 -4z m1493 -242 c64 -8 100 -15 140 -27 19 -6 40 -12 45 -13 6 -2
13 -4 18 -5 21 -3 129 -64 172 -96 59 -45 82 -68 120 -120 17 -22 41 -52 55
-66 61 -64 166 -199 154 -199 -4 0 0 -8 8 -17 17 -19 68 -127 73 -155 2 -9 9
-26 15 -37 6 -12 8 -21 5 -21 -4 0 -3 -6 2 -12 4 -7 8 -17 9 -23 1 -5 5 -26 9
-45 10 -48 11 -303 1 -369 -35 -235 -127 -409 -315 -593 -49 -49 -94 -88 -99
-88 -6 0 -12 -4 -14 -8 -3 -8 -61 -50 -93 -68 -86 -47 -115 -62 -115 -58 0 2
-17 -4 -37 -14 -44 -22 -86 -34 -208 -57 -16 -3 -68 -5 -115 -5 -137 0 -197
11 -315 54 -16 6 -32 11 -35 12 -13 1 -125 60 -128 67 -2 4 -10 7 -18 7 -8 0
-14 5 -14 10 0 6 -5 10 -11 10 -16 0 -114 78 -178 141 -83 81 -171 195 -171
220 0 7 -3 9 -7 6 -15 -15 -103 202 -118 293 -3 19 -8 43 -11 53 -6 21 -14
139 -14 212 0 43 3 83 13 180 2 11 6 26 10 33 5 6 6 16 2 21 -3 5 -1 12 5 16
5 3 10 15 10 27 0 22 91 217 112 239 7 8 25 32 40 54 16 22 47 61 71 87 24 26
57 64 72 85 37 48 113 123 125 123 6 0 10 5 10 10 0 6 7 10 15 10 8 0 15 4 15
9 0 10 125 71 159 78 14 2 28 6 33 9 5 3 20 7 33 10 14 2 37 7 53 10 15 3 56
8 92 11 36 3 66 6 67 7 5 4 209 -3 253 -8z"/>
<path d="M24659 13735 c-1 -29 -1 -2505 0 -2537 1 -27 1 -27 36 -12 19 8 37
14 40 14 6 1 25 6 50 16 11 4 26 8 34 10 36 7 71 28 72 43 0 9 0 570 1 1246
l0 1230 -116 5 c-111 5 -116 4 -117 -15z"/>
<path d="M10958 13745 c-2 -1 -34 -6 -73 -9 -203 -20 -432 -103 -570 -209 -57
-44 -193 -183 -242 -247 -70 -93 -165 -267 -178 -324 -1 -6 -7 -24 -14 -41
-16 -38 -38 -142 -48 -230 -11 -89 -5 -490 7 -490 2 0 4 -13 5 -30 2 -16 4
-31 5 -32 1 -2 3 -11 5 -20 7 -61 52 -197 96 -288 47 -96 58 -114 100 -165 12
-14 35 -42 52 -63 18 -21 47 -47 65 -59 18 -11 38 -25 45 -32 19 -18 186 -121
247 -153 30 -15 58 -31 61 -36 3 -5 9 -8 13 -8 3 1 23 -6 44 -15 191 -82 375
-119 587 -118 87 1 230 10 230 14 0 1 28 7 75 14 76 12 256 70 311 101 14 8
29 12 33 8 3 -3 6 -1 6 5 0 10 40 28 49 23 2 -2 7 1 10 6 3 5 38 28 76 51 39
23 84 53 100 66 l30 24 1 191 c1 210 4 202 -63 140 -38 -35 -153 -119 -204
-148 -74 -43 -237 -114 -289 -126 -8 -2 -42 -11 -75 -20 -56 -15 -82 -20 -180
-31 -66 -8 -340 -4 -340 5 0 1 -16 4 -35 6 -117 12 -244 55 -355 120 -63 37
-225 184 -225 205 0 5 -6 15 -13 22 -7 7 -31 49 -54 94 -32 61 -40 83 -31 92
7 7 18 12 25 12 7 0 13 4 13 9 0 5 15 14 33 22 17 7 34 16 37 19 8 11 262 160
271 160 5 0 9 5 9 10 0 6 7 10 15 10 8 0 15 5 15 10 0 6 9 10 19 10 11 0 21 4
23 8 3 8 1061 645 1105 666 13 6 23 14 23 19 0 4 7 7 15 7 8 0 15 5 15 10 0 6
5 10 11 10 10 0 285 163 302 180 15 14 -62 124 -168 238 -136 147 -336 252
-550 288 -16 3 -41 8 -55 11 -26 6 -416 13 -422 8z m327 -239 c17 -3 45 -9 63
-12 18 -3 50 -12 70 -21 20 -8 37 -14 37 -13 0 14 148 -72 183 -107 7 -7 21
-18 30 -25 9 -7 37 -37 60 -65 42 -51 47 -73 16 -73 -8 0 -14 -3 -14 -8 0 -4
-21 -18 -47 -32 -27 -14 -81 -44 -121 -67 -40 -24 -77 -43 -82 -43 -6 0 -10
-4 -10 -10 0 -5 -4 -10 -9 -10 -5 0 -38 -16 -73 -36 -34 -21 -76 -44 -93 -52
-16 -9 -32 -18 -35 -21 -3 -4 -30 -19 -60 -35 -30 -16 -60 -33 -66 -38 -6 -4
-31 -19 -55 -32 -24 -13 -60 -33 -79 -44 -19 -11 -89 -51 -154 -89 -66 -37
-145 -83 -175 -101 -31 -18 -67 -38 -81 -44 -14 -7 -27 -15 -30 -18 -3 -3 -14
-10 -25 -16 -11 -6 -40 -22 -65 -36 -125 -70 -147 -82 -165 -92 -11 -6 -22
-13 -25 -16 -5 -5 -41 -25 -108 -61 l-41 -22 -38 40 -39 40 2 114 c3 129 23
222 69 324 17 39 38 85 46 103 7 17 17 32 21 32 5 0 8 5 8 10 0 6 35 66 77
133 76 121 131 185 208 242 22 17 42 33 45 36 23 28 290 151 290 133 0 -3 6
-2 13 3 6 4 17 8 22 9 6 1 26 5 45 8 19 3 64 9 100 12 36 4 66 7 67 8 5 4 192
-3 218 -8z"/>
<path d="M12479 13743 c-1 -5 -2 -582 -3 -1283 -1 -809 2 -1277 8 -1282 6 -4
17 -3 26 2 9 5 27 10 41 12 13 2 30 7 37 11 6 5 12 6 12 4 0 -5 179 39 186 45
2 3 4 371 4 819 1 867 1 863 51 1010 45 134 101 211 218 299 43 33 130 80 147
80 8 0 14 5 14 12 0 6 3 8 6 5 4 -3 15 -2 26 4 10 5 31 12 46 14 15 3 43 7 62
11 109 21 331 3 431 -35 75 -29 109 -45 109 -53 0 -5 7 -8 15 -8 8 0 15 -4 15
-10 0 -5 5 -10 11 -10 26 0 112 -109 153 -195 37 -75 48 -106 61 -165 1 -3 4
-14 8 -25 7 -22 15 -81 24 -190 3 -38 6 -422 7 -852 0 -694 2 -783 16 -783 8
0 60 16 114 35 55 19 101 35 103 35 7 0 -3 1734 -10 1775 -13 79 -52 220 -62
227 -5 4 -6 8 -2 8 15 0 -73 155 -129 225 -85 107 -124 144 -184 175 -45 22
-118 51 -140 55 -3 1 -23 5 -45 9 -97 20 -357 30 -420 16 -22 -4 -56 -11 -75
-14 -57 -9 -160 -45 -242 -87 -120 -59 -212 -132 -295 -234 l-33 -40 0 193 0
192 -155 0 c-85 0 -156 -3 -156 -7z"/>
<path d="M18605 13734 c-49 -7 -101 -15 -115 -18 -104 -23 -129 -29 -157 -42
-17 -8 -34 -14 -39 -14 -9 0 -147 -62 -154 -70 -3 -3 -21 -14 -40 -24 -19 -11
-39 -25 -43 -33 -4 -7 -12 -13 -18 -13 -5 0 -29 -19 -54 -42 -25 -24 -51 -48
-58 -54 -6 -6 -30 -32 -52 -58 -22 -27 -48 -58 -58 -70 -35 -41 -109 -157
-139 -218 -58 -121 -100 -261 -115 -383 -14 -126 -8 -404 11 -501 2 -12 7 -39
10 -60 4 -21 14 -58 23 -83 8 -25 17 -53 18 -61 1 -8 11 -35 23 -59 12 -25 22
-49 22 -53 0 -5 5 -14 10 -21 6 -7 25 -34 43 -62 39 -62 133 -167 174 -196 11
-8 45 -36 75 -64 82 -74 99 -88 169 -135 35 -24 66 -46 69 -49 3 -3 11 -7 19
-9 8 -2 27 -12 43 -23 15 -11 28 -17 28 -14 0 4 15 -2 33 -13 17 -11 61 -30
97 -42 36 -12 72 -24 80 -27 8 -3 22 -7 30 -8 8 -1 26 -5 40 -8 59 -14 78 -17
125 -23 59 -8 316 -12 329 -6 5 3 25 6 45 8 58 5 124 15 131 19 4 2 22 7 41
10 70 12 218 68 323 121 112 57 218 124 233 146 4 7 8 97 8 199 1 148 -2 186
-12 182 -7 -3 -13 -9 -13 -14 0 -5 -11 -14 -25 -21 -13 -6 -22 -15 -19 -19 3
-5 -1 -9 -10 -9 -8 0 -16 -4 -18 -10 -14 -40 -340 -229 -420 -244 -15 -2 -31
-7 -36 -10 -8 -5 -30 -10 -92 -22 -14 -3 -41 -7 -60 -9 -19 -2 -35 -4 -35 -6
0 -1 -18 -3 -40 -5 -22 -1 -42 -3 -45 -4 -3 -1 -50 -2 -105 -2 -119 -1 -235 9
-325 28 -47 9 -55 11 -70 17 -8 3 -33 11 -55 18 -59 18 -165 73 -221 114 -75
57 -184 176 -184 203 0 6 -4 12 -10 12 -5 0 -10 7 -10 15 0 8 -4 15 -10 15 -5
0 -13 12 -16 28 -4 15 -15 42 -25 59 l-19 33 28 16 c15 10 51 32 79 51 29 18
55 33 58 33 2 0 29 16 59 35 30 19 58 35 61 35 3 0 33 18 66 40 33 22 65 40
70 40 5 0 9 5 9 11 0 5 4 8 9 4 5 -3 12 -1 16 4 3 6 46 34 96 63 50 29 107 63
127 76 20 12 48 28 62 35 14 6 34 20 44 29 11 10 26 18 33 18 7 0 13 5 13 11
0 5 4 8 9 4 5 -3 12 -1 16 4 4 8 109 72 213 131 15 9 46 28 69 43 24 15 45 27
48 27 3 0 11 5 18 11 20 17 279 169 288 169 5 0 9 5 9 10 0 6 4 10 10 10 5 0
34 16 64 35 30 19 58 35 61 35 3 0 34 18 67 41 34 22 78 49 97 60 20 11 50 28
66 39 17 11 40 24 52 29 11 5 24 15 28 20 16 27 -168 250 -279 341 -32 25
-172 110 -183 110 -4 0 -34 11 -68 24 -33 14 -76 28 -95 31 -18 3 -37 8 -40
10 -8 5 -60 14 -125 22 -89 11 -404 9 -490 -3z m407 -228 c25 -3 57 -10 70
-15 13 -4 28 -6 35 -4 6 2 14 -1 18 -6 3 -6 14 -11 23 -11 16 -1 93 -36 152
-70 31 -19 190 -176 190 -188 0 -12 -50 -46 -50 -35 0 5 -4 3 -8 -2 -8 -12
-130 -85 -141 -85 -5 0 -19 -8 -32 -19 -13 -10 -51 -33 -84 -51 -100 -55 -219
-122 -245 -139 -14 -8 -27 -16 -30 -16 -3 0 -19 -10 -36 -22 -17 -12 -34 -20
-38 -16 -3 3 -6 2 -6 -4 0 -5 -12 -15 -27 -22 -16 -7 -70 -37 -120 -67 -51
-30 -96 -55 -100 -56 -5 -1 -30 -16 -58 -33 -27 -18 -60 -35 -72 -39 -13 -4
-23 -11 -23 -16 0 -5 -10 -12 -22 -15 -11 -4 -44 -21 -72 -38 -121 -71 -423
-243 -447 -254 l-26 -11 3 171 c1 95 5 188 9 207 4 19 8 44 10 55 1 11 8 40
15 65 7 25 13 52 15 60 12 61 121 286 158 328 11 12 16 22 12 22 -10 0 81 89
131 128 44 35 147 97 156 95 4 -2 8 1 8 6 0 7 15 14 50 22 3 0 10 4 15 9 29
23 175 56 295 67 36 3 66 6 68 8 4 3 152 -3 204 -9z"/>
<path d="M25988 13745 c-2 -2 -19 -5 -38 -8 -19 -3 -47 -10 -62 -16 -16 -6
-28 -7 -28 -4 0 4 -5 2 -12 -5 -7 -7 -20 -12 -30 -12 -10 0 -18 -4 -18 -8 0
-5 -12 -14 -26 -21 -24 -11 -88 -60 -202 -155 -55 -45 -132 -135 -132 -153 0
-7 -4 -13 -8 -13 -4 0 -14 -15 -21 -32 -50 -119 -63 -292 -30 -407 22 -83 67
-181 82 -181 6 0 8 -3 4 -6 -13 -13 165 -174 192 -174 5 0 11 -4 13 -8 5 -14
221 -110 259 -116 8 -1 20 -5 27 -9 6 -5 12 -6 12 -2 0 3 10 0 23 -7 12 -6 30
-13 39 -15 10 -2 53 -12 95 -24 43 -12 98 -23 123 -25 58 -5 124 -29 180 -68
74 -50 185 -172 220 -242 29 -56 33 -74 35 -154 1 -49 -2 -90 -7 -90 -4 0 -7
-3 -7 -7 1 -5 0 -11 -1 -15 -1 -5 -3 -11 -4 -15 -4 -23 -30 -73 -37 -73 -5 0
-9 -6 -9 -13 0 -12 -122 -134 -162 -162 -63 -45 -183 -85 -278 -94 -82 -7
-169 6 -260 40 -63 23 -173 80 -178 91 -2 5 -10 8 -18 8 -8 0 -14 4 -14 8 0 5
-8 13 -19 18 -24 11 -82 58 -134 106 -22 21 -45 34 -51 31 -6 -4 -53 -35 -104
-70 -51 -35 -97 -63 -103 -63 -20 0 -7 -29 33 -76 41 -47 51 -57 111 -110 39
-34 138 -98 179 -114 18 -8 35 -16 38 -20 7 -8 153 -52 220 -66 76 -17 317
-23 410 -11 47 7 204 40 235 51 6 1 17 5 25 8 8 3 38 14 65 23 134 47 181 81
241 176 36 57 77 140 89 179 11 35 28 99 31 115 2 11 6 31 10 45 3 14 7 50 9
80 2 30 4 57 5 60 1 3 1 10 0 15 -1 6 -4 40 -5 77 -1 38 -8 74 -14 81 -6 8 -8
16 -5 19 9 9 -53 136 -93 191 -21 28 -61 73 -89 100 -57 53 -174 141 -174 131
0 -4 -8 0 -17 9 -10 8 -61 37 -113 63 -91 46 -99 48 -190 50 -59 2 -124 11
-170 24 -41 11 -82 22 -90 24 -8 1 -37 12 -64 24 -27 12 -51 22 -53 22 -18 0
-135 91 -166 129 -66 81 -99 211 -75 298 9 37 57 143 68 153 6 6 26 38 41 65
14 27 86 80 129 94 87 29 346 33 450 7 73 -19 183 -62 220 -86 14 -9 32 -19
40 -22 8 -3 41 -26 72 -52 31 -25 60 -46 65 -46 4 1 40 51 80 113 68 106 71
113 55 131 -19 20 -97 72 -152 100 -43 22 -195 73 -240 81 -18 3 -37 8 -42 11
-16 10 -116 17 -295 19 -100 2 -183 2 -185 0z"/>
<path d="M28408 13745 c-1 -2 -32 -6 -68 -10 -36 -4 -83 -11 -105 -16 -22 -6
-49 -12 -60 -13 -46 -8 -186 -60 -272 -102 -51 -24 -96 -44 -102 -44 -5 0 -11
-3 -13 -7 -1 -5 -42 -34 -90 -66 -49 -31 -88 -61 -88 -66 0 -5 -7 -16 -15 -24
-47 -47 -266 -424 -276 -475 -1 -4 -6 -18 -11 -32 -6 -14 -11 -29 -12 -35 -1
-5 -10 -35 -19 -65 -19 -64 -28 -105 -30 -140 -1 -14 -5 -29 -8 -35 -11 -20 0
-274 15 -341 2 -12 7 -39 10 -60 4 -22 12 -55 18 -74 36 -114 34 -109 82 -210
37 -79 122 -213 172 -270 55 -64 143 -150 152 -150 6 0 12 -6 15 -13 14 -37
308 -204 417 -237 25 -7 50 -17 55 -21 6 -4 24 -11 40 -14 41 -8 60 -13 60
-15 0 -1 9 -3 20 -5 11 -2 32 -6 46 -9 14 -3 43 -7 66 -9 22 -2 44 -6 49 -9
13 -7 267 -2 339 7 152 18 163 20 260 46 44 11 90 23 103 26 12 3 22 10 22 15
0 5 4 7 8 4 17 -10 233 99 322 164 l65 47 1 191 c0 106 -2 192 -4 192 -3 0
-23 -15 -46 -33 -186 -150 -462 -283 -673 -323 -246 -47 -527 -30 -693 43 -74
32 -105 48 -108 56 -2 4 -8 7 -14 7 -29 0 -228 188 -228 216 0 8 -4 14 -8 14
-5 0 -15 12 -22 28 -8 15 -21 35 -29 45 -8 9 -11 17 -8 17 4 0 -2 15 -13 33
-26 43 -25 63 5 79 14 7 90 52 170 101 80 48 149 87 155 87 5 0 10 4 10 8 0 5
15 16 33 26 17 9 41 22 52 29 11 7 69 41 128 77 59 36 125 75 145 88 20 12 53
31 72 42 19 11 51 30 71 43 20 12 87 53 150 90 63 37 121 72 129 77 74 47 234
140 241 140 5 0 9 4 9 8 0 4 19 18 43 30 23 13 51 28 62 35 37 22 119 72 137
82 10 6 81 48 159 95 134 80 168 109 141 118 -7 2 -12 10 -12 18 0 8 -4 14 -8
14 -5 0 -13 8 -18 19 -32 66 -194 231 -288 291 -38 25 -72 43 -74 42 -3 -2 -8
0 -11 6 -8 12 -156 69 -217 83 -88 20 -127 27 -184 35 -41 6 -417 14 -422 9z
m317 -239 c72 -7 116 -15 127 -22 5 -3 20 -8 35 -10 94 -17 227 -119 272 -208
27 -54 23 -73 -19 -87 -16 -6 -30 -15 -30 -20 0 -5 -4 -9 -9 -9 -6 0 -59 -28
-119 -63 -60 -35 -115 -67 -123 -70 -8 -4 -36 -21 -64 -37 -27 -16 -66 -38
-85 -47 -19 -10 -37 -21 -40 -25 -3 -4 -17 -12 -30 -18 -14 -5 -38 -19 -55
-29 -16 -11 -46 -28 -65 -39 -19 -11 -53 -30 -75 -42 -22 -13 -60 -34 -85 -48
-25 -13 -49 -28 -55 -32 -5 -4 -93 -55 -195 -112 -313 -177 -524 -299 -538
-310 -7 -6 -16 -8 -19 -4 -8 7 -6 290 2 346 12 89 18 116 27 128 6 6 8 12 5
12 -9 0 38 120 69 176 86 158 264 344 419 442 106 66 251 116 370 128 33 4 61
7 62 8 5 4 161 -2 218 -8z"/>
</g>
</svg>
